<?xml version="1.0" encoding="UTF-8" standalone="no"?>
<!-- Generator: Adobe Illustrator 19.0.0, SVG Export Plug-In . SVG Version: 6.00 Build 0)  -->

<svg
   xmlns:dc="http://purl.org/dc/elements/1.1/"
   xmlns:cc="http://creativecommons.org/ns#"
   xmlns:rdf="http://www.w3.org/1999/02/22-rdf-syntax-ns#"
   xmlns:svg="http://www.w3.org/2000/svg"
   xmlns="http://www.w3.org/2000/svg"
   xmlns:sodipodi="http://sodipodi.sourceforge.net/DTD/sodipodi-0.dtd"
   xmlns:inkscape="http://www.inkscape.org/namespaces/inkscape"
   version="1.1"
   id="Layer_1"
   x="0px"
   y="0px"
   viewBox="0 0 512 512"
   style="enable-background:new 0 0 512 512;"
   xml:space="preserve"
   sodipodi:docname="bird.svg"
   inkscape:version="0.92.2 (5c3e80d, 2017-08-06)"><metadata
     id="metadata45"><rdf:RDF><cc:Work
         rdf:about=""><dc:format>image/svg+xml</dc:format><dc:type
           rdf:resource="http://purl.org/dc/dcmitype/StillImage" /><dc:title></dc:title></cc:Work></rdf:RDF></metadata><defs
     id="defs43" /><sodipodi:namedview
     pagecolor="#ffffff"
     bordercolor="#666666"
     borderopacity="1"
     objecttolerance="10"
     gridtolerance="10"
     guidetolerance="10"
     inkscape:pageopacity="0"
     inkscape:pageshadow="2"
     inkscape:window-width="1280"
     inkscape:window-height="945"
     id="namedview41"
     showgrid="false"
     inkscape:zoom="0.4609375"
     inkscape:cx="315.67362"
     inkscape:cy="531.75292"
     inkscape:window-x="-9"
     inkscape:window-y="-9"
     inkscape:window-maximized="1"
     inkscape:current-layer="g8" /><g
     id="g858"
     transform="translate(1.5340642)"><g
       transform="matrix(1.5673305,0,0,1,-145.23661,0)"
       id="g8"><rect
         style="opacity:1;fill:#5fbcd3;fill-opacity:1;stroke:none;stroke-width:0.34060571;stroke-linecap:butt;stroke-miterlimit:4;stroke-dasharray:none;stroke-dashoffset:0;stroke-opacity:1;paint-order:normal"
         id="rect841"
         width="326.3295"
         height="511.65939"
         x="92.858147"
         y="1.4060147"
         ry="29.706141" /><rect
         ry="27.39151"
         y="21.339638"
         x="108.95308"
         height="471.79214"
         width="294.83176"
         id="rect843"
         style="opacity:1;fill:#ff80b2;fill-opacity:1;stroke:none;stroke-width:0.31088212;stroke-linecap:butt;stroke-miterlimit:4;stroke-dasharray:none;stroke-dashoffset:0;stroke-opacity:1;paint-order:normal" /><g
         id="g952"
         transform="matrix(0.51907316,0,0,0.81355919,122.1385,47.728772)"><g
           id="g838"><path
             id="path834"
             d="m 440.381,272.689 c 30.789,-13.305 81.858,-62.186 69.815,-90.057 -12.044,-27.871 -82.64,-24.177 -113.429,-10.872 -30.789,13.305 -45.985,46.684 -33.941,74.555 12.043,27.871 46.766,39.679 77.555,26.374 z"
             style="fill:#83cceb"
             inkscape:connector-curvature="0" /><path
             id="path836"
             d="m 110.476,493.062 v 0 c -27.429,0 -44.35,-29.945 -30.199,-53.441 l 55.314,-91.839 h 57.053 L 143.19,470.945 c -5.365,13.361 -18.316,22.117 -32.714,22.117 z"
             style="fill:#83cceb"
             inkscape:connector-curvature="0" /></g><path
           id="path840"
           d="m 189.798,493.062 v 0 c -26.561,0 -44.71,-26.844 -34.813,-51.492 l 37.659,-93.788 h 57.053 l -23.118,115.15 c -3.518,17.523 -18.909,30.13 -36.781,30.13 z"
           style="fill:#8ccde9"
           inkscape:connector-curvature="0" /><g
           id="g848"><path
             id="path842"
             d="m 189.798,493.062 v 0 c -26.561,0 -44.71,-26.844 -34.813,-51.492 l 37.659,-93.788 h 57.053 l -23.118,115.15 c -3.518,17.523 -18.909,30.13 -36.781,30.13 z"
             style="fill:#83cceb"
             inkscape:connector-curvature="0" /><path
             id="path844"
             d="m 267.924,493.062 v 0 c -24.512,0 -42.891,-22.435 -38.066,-46.467 l 19.838,-98.813 h 57.053 v 106.455 c 0,21.443 -17.382,38.825 -38.825,38.825 z"
             style="fill:#83cceb"
             inkscape:connector-curvature="0" /><path
             id="path846"
             d="m 255.991,73.945 c -3.643,0 -6.839,-2.658 -7.405,-6.37 -1.585,-10.391 -7.556,-19.957 -16.381,-26.243 -8.865,-6.315 -19.729,-8.695 -30.594,-6.703 -4.069,0.751 -7.982,-1.95 -8.73,-6.024 -0.747,-4.074 1.95,-7.983 6.024,-8.73 14.889,-2.729 29.806,0.55 42.003,9.239 12.11,8.627 20.313,21.821 22.506,36.199 0.625,4.095 -2.189,7.92 -6.283,8.545 -0.383,0.059 -0.764,0.087 -1.14,0.087 z"
             style="fill:#83cceb"
             inkscape:connector-curvature="0" /></g><path
           id="path850"
           d="M 423.016,251.527 C 423.016,142.555 348.24,54.215 256,54.215 c -92.24,0 -167.016,88.34 -167.016,197.312 0,108.972 74.776,144.158 167.016,144.158 92.24,0 167.016,-35.186 167.016,-144.158 z"
           style="fill:#aeeaf9"
           inkscape:connector-curvature="0" /><g
           id="g856"><ellipse
             id="ellipse852"
             ry="23.848"
             rx="29.945999"
             cy="209.62"
             cx="212.21001"
             style="fill:#ffa6bb" /><ellipse
             id="ellipse854"
             ry="23.848"
             rx="29.945999"
             cy="209.62"
             cx="374.53"
             style="fill:#ffa6bb" /></g><path
           id="path858"
           d="m 289.115,166.36 -19.507,23.552 c -3.337,4.029 -2.855,9.983 1.086,13.423 l 16.201,14.139 c 3.712,3.239 9.245,3.239 12.957,0 l 16.201,-14.139 c 3.941,-3.44 4.423,-9.394 1.086,-13.423 L 297.632,166.36 c -2.211,-2.67 -6.306,-2.67 -8.517,0 z"
           style="fill:#fbdd56"
           inkscape:connector-curvature="0" /><path
           id="path860"
           d="m 292.123,164.508 c -1.131,0.261 -2.197,0.873 -3.008,1.852 l -19.507,23.551 c -3.337,4.029 -2.855,9.983 1.086,13.423 l 16.201,14.139 c 3.125,2.727 7.536,3.149 11.069,1.284 -16.104,-7.38 -9.826,-42.304 -5.841,-54.249 z"
           style="opacity:0.1;enable-background:new"
           inkscape:connector-curvature="0" /><g
           id="g866"><path
             id="path862"
             d="m 243.92,191.166 c -4.142,0 -7.5,-3.357 -7.5,-7.5 0,-3.725 -3.03,-6.754 -6.754,-6.754 -3.724,0 -6.753,3.029 -6.753,6.754 0,4.143 -3.358,7.5 -7.5,7.5 -4.142,0 -7.5,-3.357 -7.5,-7.5 0,-11.995 9.758,-21.754 21.753,-21.754 11.995,0 21.754,9.759 21.754,21.754 0,4.142 -3.357,7.5 -7.5,7.5 z"
             style="fill:#414b58"
             inkscape:connector-curvature="0" /><path
             id="path864"
             d="m 371.335,191.166 c -4.143,0 -7.5,-3.357 -7.5,-7.5 0,-3.725 -3.03,-6.754 -6.754,-6.754 -3.724,0 -6.754,3.029 -6.754,6.754 0,4.143 -3.357,7.5 -7.5,7.5 -4.143,0 -7.5,-3.357 -7.5,-7.5 0,-11.995 9.759,-21.754 21.754,-21.754 11.995,0 21.754,9.759 21.754,21.754 0,4.142 -3.357,7.5 -7.5,7.5 z"
             style="fill:#414b58"
             inkscape:connector-curvature="0" /></g><path
           id="path868"
           d="M 249.399,54.382 C 160.22,58.479 88.984,145.168 88.984,251.527 c 0,108.972 74.776,144.158 167.016,144.158 27.67,0 53.764,-3.172 76.744,-10.546 C 123.147,342.03 196.649,102.371 249.399,54.382 Z"
           style="opacity:0.05;enable-background:new"
           inkscape:connector-curvature="0" /><g
           id="g874"><path
             id="path870"
             d="m 239.298,423.326 v 0 c -10.796,0 -19.547,-8.751 -19.547,-19.547 v -21.612 c 0,-10.796 8.751,-19.547 19.547,-19.547 v 0 c 10.796,0 19.547,8.751 19.547,19.547 v 21.612 c 0,10.796 -8.751,19.547 -19.547,19.547 z"
             style="fill:#fbdd56"
             inkscape:connector-curvature="0" /><path
             id="path872"
             d="m 340.797,423.326 v 0 c 10.796,0 19.547,-8.751 19.547,-19.547 v -21.612 c 0,-10.796 -8.751,-19.547 -19.547,-19.547 v 0 c -10.796,0 -19.547,8.751 -19.547,19.547 v 21.612 c 0,10.796 8.751,19.547 19.547,19.547 z"
             style="fill:#fbdd56"
             inkscape:connector-curvature="0" /></g><path
           id="path876"
           d="M 71.619,272.689 C 40.83,259.384 -10.239,210.503 1.804,182.632 c 12.044,-27.871 82.64,-24.177 113.429,-10.872 30.789,13.305 45.985,46.684 33.941,74.555 -12.043,27.871 -46.766,39.679 -77.555,26.374 z"
           style="fill:#83cceb"
           inkscape:connector-curvature="0" /><g
           id="g878" /><g
           id="g880" /><g
           id="g882" /><g
           id="g884" /><g
           id="g886" /><g
           id="g888" /><g
           id="g890" /><g
           id="g892" /><g
           id="g894" /><g
           id="g896" /><g
           id="g898" /><g
           id="g900" /><g
           id="g902" /><g
           id="g904" /><g
           id="g906" /></g></g></g><g
     id="g10" /><g
     id="g12" /><g
     id="g14" /><g
     id="g16" /><g
     id="g18" /><g
     id="g20" /><g
     id="g22" /><g
     id="g24" /><g
     id="g26" /><g
     id="g28" /><g
     id="g30" /><g
     id="g32" /><g
     id="g34" /><g
     id="g36" /><g
     id="g38" /></svg>