<?xml version="1.0" encoding="UTF-8" standalone="no"?>
<!-- Generator: Adobe Illustrator 19.0.0, SVG Export Plug-In . SVG Version: 6.00 Build 0)  -->

<svg
   xmlns:dc="http://purl.org/dc/elements/1.1/"
   xmlns:cc="http://creativecommons.org/ns#"
   xmlns:rdf="http://www.w3.org/1999/02/22-rdf-syntax-ns#"
   xmlns:svg="http://www.w3.org/2000/svg"
   xmlns="http://www.w3.org/2000/svg"
   xmlns:sodipodi="http://sodipodi.sourceforge.net/DTD/sodipodi-0.dtd"
   xmlns:inkscape="http://www.inkscape.org/namespaces/inkscape"
   version="1.1"
   id="Layer_1"
   x="0px"
   y="0px"
   viewBox="0 0 512 512"
   style="enable-background:new 0 0 512 512;"
   xml:space="preserve"
   sodipodi:docname="chicken.svg"
   inkscape:version="0.92.2 (5c3e80d, 2017-08-06)"><metadata
     id="metadata45"><rdf:RDF><cc:Work
         rdf:about=""><dc:format>image/svg+xml</dc:format><dc:type
           rdf:resource="http://purl.org/dc/dcmitype/StillImage" /><dc:title></dc:title></cc:Work></rdf:RDF></metadata><defs
     id="defs43" /><sodipodi:namedview
     pagecolor="#ffffff"
     bordercolor="#666666"
     borderopacity="1"
     objecttolerance="10"
     gridtolerance="10"
     guidetolerance="10"
     inkscape:pageopacity="0"
     inkscape:pageshadow="2"
     inkscape:window-width="1280"
     inkscape:window-height="945"
     id="namedview41"
     showgrid="false"
     inkscape:zoom="0.4609375"
     inkscape:cx="355.19852"
     inkscape:cy="371.82219"
     inkscape:window-x="-9"
     inkscape:window-y="-9"
     inkscape:window-maximized="1"
     inkscape:current-layer="g8" /><g
     id="g858"
     transform="translate(1.5340642)"><g
       transform="matrix(1.5673305,0,0,1,-145.23661,0)"
       id="g8"><rect
         style="opacity:1;fill:#5fbcd3;fill-opacity:1;stroke:none;stroke-width:0.34060571;stroke-linecap:butt;stroke-miterlimit:4;stroke-dasharray:none;stroke-dashoffset:0;stroke-opacity:1;paint-order:normal"
         id="rect841"
         width="326.3295"
         height="511.65939"
         x="92.858147"
         y="1.4060147"
         ry="29.706141" /><rect
         ry="27.39151"
         y="21.339638"
         x="108.95308"
         height="471.79214"
         width="294.83176"
         id="rect843"
         style="opacity:1;fill:#afdde9;fill-opacity:1;stroke:none;stroke-width:0.31088212;stroke-linecap:butt;stroke-miterlimit:4;stroke-dasharray:none;stroke-dashoffset:0;stroke-opacity:1;paint-order:normal" /><g
         id="g946"
         transform="matrix(0.51282961,0,0,0.80377348,128.63062,50.23399)"><path
           id="path834"
           d="m 183.21,62.454 c -6.962,6.024 -22.651,14.523 -36.142,18.36 -9.314,2.641 -17.586,3.053 -21.196,-1.124 -8.84,-10.222 13.553,-44.084 25.322,-54.254 11.769,-10.18 28.468,-10.139 37.318,0.083 2.486,2.878 4.095,6.261 4.837,9.871 1.918,9.169 -1.692,19.762 -10.139,27.064 z"
           style="fill:#c70024"
           inkscape:connector-curvature="0" /><path
           id="path836"
           d="m 183.21,62.454 c -6.962,6.024 -22.651,14.523 -36.142,18.36 4.899,-13.801 17.442,-31.078 25.271,-37.844 6.251,-5.405 13.894,-7.932 21.011,-7.581 1.917,9.17 -1.693,19.763 -10.14,27.065 z"
           style="fill:#ff0c38"
           inkscape:connector-curvature="0" /><path
           id="path838"
           d="m 150.389,28.169 c 0,10.232 -4.745,30.665 -11.851,43.434 -3.682,6.643 -8.004,11.212 -12.625,11.212 -13.522,0 -24.476,-39.092 -24.476,-54.646 C 101.437,12.615 112.39,0 125.913,0 c 5.446,0 10.469,2.053 14.543,5.518 6.024,5.127 9.933,13.368 9.933,22.651 z"
           style="fill:#830018"
           inkscape:connector-curvature="0" /><path
           id="path840"
           d="m 150.389,28.169 c 0,10.232 -4.745,30.665 -11.851,43.434 C 132.05,58.782 127.78,39.907 127.78,30.19 c 0,-10.634 5.116,-19.886 12.677,-24.672 6.023,5.127 9.932,13.368 9.932,22.651 z"
           style="fill:#a5001e"
           inkscape:connector-curvature="0" /><path
           id="path842"
           d="M 123.891,84.166 C 115.051,94.398 78.322,77.111 66.553,66.93 54.784,56.76 52.412,40.215 61.262,29.994 c 2.135,-2.465 4.724,-4.342 7.591,-5.611 9.025,-4.033 20.794,-2.197 29.716,5.529 7.241,6.261 18.504,21.475 24.033,34.646 3.476,8.242 4.693,15.678 1.289,19.608 z"
           style="fill:#c70024"
           inkscape:connector-curvature="0" /><path
           id="path844"
           d="M 122.602,64.558 C 108.038,62.309 87.646,51.737 79.426,44.63 73.01,39.091 69.39,31.654 68.854,24.383 c 9.025,-4.033 20.794,-2.197 29.716,5.529 7.24,6.261 18.503,21.475 24.032,34.646 z"
           style="fill:#ff0c38"
           inkscape:connector-curvature="0" /><path
           id="path846"
           d="m 242.973,496.528 h -13.35 v -62.515 c 0,-4.272 -3.464,-7.736 -7.736,-7.736 -4.272,0 -7.736,3.464 -7.736,7.736 v 62.515 h -37.767 c -4.272,0 -7.736,3.464 -7.736,7.736 0,4.272 3.464,7.736 7.736,7.736 h 66.588 c 4.272,0 7.736,-3.464 7.736,-7.736 0.001,-4.272 -3.463,-7.736 -7.735,-7.736 z"
           style="fill:#ff9811"
           inkscape:connector-curvature="0" /><path
           inkscape:connector-curvature="0"
           style="fill:#ff9811"
           d="m 342.14992,464.94277 -12.73973,3.99023 -18.68534,-59.65722 c -1.27687,-4.07671 -5.61789,-6.34699 -9.6946,-5.07011 -4.07671,1.27687 -6.34699,5.61789 -5.07012,9.6946 l 18.68534,59.65721 -36.04053,11.28832 c -4.07671,1.27688 -6.34699,5.61789 -5.07012,9.6946 1.27688,4.07672 5.61789,6.347 9.6946,5.07012 l 63.54403,-19.90273 c 4.07671,-1.27688 6.34699,-5.61789 5.07011,-9.69461 -1.27592,-4.07701 -5.61693,-6.34729 -9.69364,-5.07041 z"
           id="path954" /><path
           id="path848"
           d="m 263.25,371.084 c -9.005,38.421 -18.009,60.897 -26.622,72.397 -32.924,43.96 -60.185,-72.397 -60.185,-72.397 z"
           style="fill:#b39a7c"
           inkscape:connector-curvature="0" /><path
           inkscape:connector-curvature="0"
           style="fill:#b39a7c"
           d="m 324.00556,339.1726 c 2.89044,39.35617 1.01598,63.49595 -3.76601,77.04462 -18.27955,51.79121 -79.07273,-51.09856 -79.07273,-51.09856 z"
           id="path956" /><path
           id="path850"
           d="m 263.25,371.084 c -9.005,38.421 -18.009,60.897 -26.622,72.397 -17.483,-21.887 -29.324,-72.397 -29.324,-72.397 z"
           style="fill:#c0ab91"
           inkscape:connector-curvature="0" /><path
           id="path852"
           d="M 101.437,180.032 H 29.615 c -3.199,0 -5.792,-2.593 -5.792,-5.792 0,-20.623 16.718,-37.341 37.341,-37.341 h 40.275 v 43.132 h -0.002 z"
           style="fill:#ffa733"
           inkscape:connector-curvature="0" /><path
           id="path854"
           d="M 115.79,180.032 H 38.176 v 0 c 0,23.821 19.311,43.132 43.132,43.132 h 34.483 v -43.132 z"
           style="fill:#ff9811"
           inkscape:connector-curvature="0" /><path
           inkscape:connector-curvature="0"
           style="fill:#c0ab91"
           d="m 324.00556,339.1726 c 2.89044,39.35617 1.01598,63.49595 -3.76601,77.04462 -23.22567,-15.66091 -49.6225,-60.32272 -49.6225,-60.32272 z"
           id="path958" /><path
           id="path856"
           d="m 388.695,227.672 -2.424,27.612 c -3.847,51.748 -32.986,98.648 -78.4,123.753 -0.805,0.444 -1.609,0.877 -2.424,1.31 -21.413,11.346 -45.786,17.782 -71.593,17.782 h -1.681 C 147.161,398.129 78.24,329.208 78.24,244.196 V 134.738 c 0,-32.119 26.209,-58.432 58.287,-58.597 h 0.309 c 16.111,0 30.768,6.591 41.382,17.215 10.624,10.624 17.215,25.271 17.215,41.382 v 26.271 c 0,36.854 29.881,66.724 66.724,66.724 h 71.655 v -0.062 z"
           style="fill:#d9ccbc"
           inkscape:connector-curvature="0" /><path
           id="path858"
           d="m 388.695,227.672 -2.424,27.612 c -3.847,51.748 -32.986,98.648 -78.4,123.753 -0.805,0.444 -1.609,0.877 -2.424,1.31 -10.954,2.496 -22.352,3.816 -34.038,3.816 h -1.681 c -85.022,0 -153.933,-68.921 -153.933,-153.944 V 120.772 c 0,-17.834 8.066,-33.862 20.732,-44.631 h 0.309 c 16.111,0 30.768,6.591 41.382,17.215 10.624,10.624 17.215,25.271 17.215,41.382 v 26.271 c 0,36.854 29.881,66.724 66.724,66.724 h 71.655 v -0.062 h 54.883 z"
           style="fill:#ebe5dd"
           inkscape:connector-curvature="0" /><path
           id="path860"
           d="m 125.913,166.203 c -14.524,0 -26.34,-11.816 -26.34,-26.34 0,-4.272 3.464,-7.736 7.736,-7.736 4.272,0 7.736,3.464 7.736,7.736 0,5.993 4.876,10.868 10.868,10.868 5.993,0 10.868,-4.876 10.868,-10.868 0,-4.272 3.464,-7.736 7.736,-7.736 4.272,0 7.736,3.464 7.736,7.736 0,14.522 -11.816,26.34 -26.34,26.34 z"
           style="fill:#b39a7c"
           inkscape:connector-curvature="0" /><path
           id="path862"
           d="m 467.188,303.081 c -3.641,3.961 -8.427,6.395 -13.718,7.344 -10.046,1.815 -21.918,-1.733 -31.294,-10.335 -10.696,-9.83 -31.8,-38.586 -37.338,-57.256 -1.867,-6.292 -1.97,-11.439 0.691,-14.337 10.552,-11.49 60.587,16.833 74.894,29.984 14.295,13.141 17.327,33.11 6.765,44.6 z"
           style="fill:#d9ccbc"
           inkscape:connector-curvature="0" /><path
           id="path864"
           d="m 453.47,310.425 c -10.046,1.815 -21.918,-1.733 -31.294,-10.335 -10.696,-9.83 -31.8,-38.586 -37.338,-57.256 19.237,5.126 46.952,21.867 57.018,31.119 11.325,10.407 15.585,25.105 11.614,36.472 z"
           style="fill:#ebe5dd"
           inkscape:connector-curvature="0" /><path
           id="path866"
           d="m 487.321,237.79 c -3.435,12.295 -16.771,21.825 -33.11,22.506 -12.893,0.547 -38.999,-3.95 -55.244,-11.614 -8.2,-3.858 -13.883,-8.52 -14.11,-13.739 -0.66,-15.596 47.57,-30.294 66.972,-31.109 19.412,-0.825 35.678,11.15 36.328,26.745 0.103,2.477 -0.186,4.89 -0.836,7.211 z"
           style="fill:#b39a7c"
           inkscape:connector-curvature="0" /><path
           id="path868"
           d="m 487.321,237.79 c -3.435,12.295 -16.771,21.825 -33.11,22.506 -12.893,0.547 -38.999,-3.95 -55.244,-11.614 13.79,-11.057 45.508,-19.814 60.35,-20.433 11.171,-0.474 21.3,3.291 28.004,9.541 z"
           style="fill:#c0ab91"
           inkscape:connector-curvature="0" /><path
           id="path870"
           d="m 455.439,207.053 c -9.201,9.489 -32.759,27.457 -50.407,34.533 -8.283,3.332 -15.265,4.26 -18.845,0.794 -11.212,-10.851 15.142,-60.69 28.654,-74.646 13.512,-13.956 33.553,-16.462 44.765,-5.611 1.599,1.547 2.929,3.29 3.992,5.168 6.446,11.304 3.424,27.797 -8.159,39.762 z"
           style="fill:#d9ccbc"
           inkscape:connector-curvature="0" /><path
           id="path872"
           d="m 455.439,207.053 c -9.201,9.489 -32.759,27.457 -50.407,34.533 2.589,-19.113 20.639,-51.191 31.057,-61.949 7.952,-8.21 18.164,-12.46 27.509,-12.346 6.446,11.304 3.424,27.797 -8.159,39.762 z"
           style="fill:#ebe5dd"
           inkscape:connector-curvature="0" /><g
           id="g874" /><g
           id="g876" /><g
           id="g878" /><g
           id="g880" /><g
           id="g882" /><g
           id="g884" /><g
           id="g886" /><g
           id="g888" /><g
           id="g890" /><g
           id="g892" /><g
           id="g894" /><g
           id="g896" /><g
           id="g898" /><g
           id="g900" /><g
           id="g902" /></g></g></g><g
     id="g10" /><g
     id="g12" /><g
     id="g14" /><g
     id="g16" /><g
     id="g18" /><g
     id="g20" /><g
     id="g22" /><g
     id="g24" /><g
     id="g26" /><g
     id="g28" /><g
     id="g30" /><g
     id="g32" /><g
     id="g34" /><g
     id="g36" /><g
     id="g38" /></svg>