<?xml version="1.0" encoding="UTF-8" standalone="no"?>
<!-- Generator: Adobe Illustrator 19.0.0, SVG Export Plug-In . SVG Version: 6.00 Build 0)  -->

<svg
   xmlns:dc="http://purl.org/dc/elements/1.1/"
   xmlns:cc="http://creativecommons.org/ns#"
   xmlns:rdf="http://www.w3.org/1999/02/22-rdf-syntax-ns#"
   xmlns:svg="http://www.w3.org/2000/svg"
   xmlns="http://www.w3.org/2000/svg"
   xmlns:sodipodi="http://sodipodi.sourceforge.net/DTD/sodipodi-0.dtd"
   xmlns:inkscape="http://www.inkscape.org/namespaces/inkscape"
   version="1.1"
   id="Layer_1"
   x="0px"
   y="0px"
   viewBox="0 0 512 512"
   style="enable-background:new 0 0 512 512;"
   xml:space="preserve"
   sodipodi:docname="chick.svg"
   inkscape:version="0.92.2 (5c3e80d, 2017-08-06)"><metadata
     id="metadata45"><rdf:RDF><cc:Work
         rdf:about=""><dc:format>image/svg+xml</dc:format><dc:type
           rdf:resource="http://purl.org/dc/dcmitype/StillImage" /><dc:title></dc:title></cc:Work></rdf:RDF></metadata><defs
     id="defs43" /><sodipodi:namedview
     pagecolor="#ffffff"
     bordercolor="#666666"
     borderopacity="1"
     objecttolerance="10"
     gridtolerance="10"
     guidetolerance="10"
     inkscape:pageopacity="0"
     inkscape:pageshadow="2"
     inkscape:window-width="1280"
     inkscape:window-height="945"
     id="namedview41"
     showgrid="false"
     inkscape:zoom="0.4609375"
     inkscape:cx="335.35699"
     inkscape:cy="356.39501"
     inkscape:window-x="-9"
     inkscape:window-y="-9"
     inkscape:window-maximized="1"
     inkscape:current-layer="g8" /><g
     id="g858"
     transform="translate(1.5340642)"><g
       transform="matrix(1.5673305,0,0,1,-145.23661,0)"
       id="g8"><rect
         style="opacity:1;fill:#5fbcd3;fill-opacity:1;stroke:none;stroke-width:0.34060571;stroke-linecap:butt;stroke-miterlimit:4;stroke-dasharray:none;stroke-dashoffset:0;stroke-opacity:1;paint-order:normal"
         id="rect841"
         width="326.3295"
         height="511.65939"
         x="92.858147"
         y="1.4060147"
         ry="29.706141" /><rect
         ry="27.39151"
         y="21.339638"
         x="108.95308"
         height="471.79214"
         width="294.83176"
         id="rect843"
         style="opacity:1;fill:#ff5599;fill-opacity:1;stroke:none;stroke-width:0.31088212;stroke-linecap:butt;stroke-miterlimit:4;stroke-dasharray:none;stroke-dashoffset:0;stroke-opacity:1;paint-order:normal" /><g
         id="g955"
         transform="matrix(0.50285221,0,0,0.78813559,126.29106,54.237288)"><g
           id="g838"><path
             id="path834"
             d="m 492.557,188.675 c 19.489,19.489 0.952,69.625 -25.958,96.536 -19.489,19.489 -51.088,19.489 -70.577,0 -19.489,-19.489 -19.489,-51.088 0,-70.577 26.91,-26.911 77.046,-45.448 96.535,-25.959 z"
             style="fill:#fbdd56"
             inkscape:connector-curvature="0" /><path
             id="path836"
             d="M 19.442,188.675 C -0.047,208.164 18.49,258.3 45.4,285.211 c 19.489,19.489 51.088,19.489 70.577,0 19.489,-19.489 19.489,-51.088 0,-70.577 -26.91,-26.911 -77.046,-45.448 -96.535,-25.959 z"
             style="fill:#fbdd56"
             inkscape:connector-curvature="0" /></g><path
           id="path840"
           d="m 492.557,188.675 c 19.489,19.489 0.952,69.625 -25.958,96.536 -19.489,19.489 -51.088,19.489 -70.577,0 -19.489,-19.489 -19.489,-51.088 0,-70.577 26.91,-26.911 77.046,-45.448 96.535,-25.959 z"
           style="opacity:0.1;enable-background:new"
           inkscape:connector-curvature="0" /><path
           id="path842"
           d="M 19.442,188.675 C -0.047,208.164 18.49,258.3 45.4,285.211 c 19.489,19.489 51.088,19.489 70.577,0 19.489,-19.489 19.489,-51.088 0,-70.577 -26.91,-26.911 -77.046,-45.448 -96.535,-25.959 z"
           style="opacity:0.1;enable-background:new"
           inkscape:connector-curvature="0" /><path
           id="path844"
           d="M 256,0 V 0 C 149.437,0 67.148,93.664 80.869,199.339 L 98.486,335.027 C 108.763,414.179 176.183,473.411 256,473.411 v 0 c 79.816,0 147.236,-59.232 157.513,-138.384 L 431.13,199.339 C 444.851,93.664 362.563,0 256,0 Z"
           style="fill:#fbdd56"
           inkscape:connector-curvature="0" /><g
           id="g850"><ellipse
             id="ellipse846"
             ry="26.933001"
             rx="33.82"
             cy="176.2"
             cx="164.34"
             style="fill:#ffa6bb" /><ellipse
             id="ellipse848"
             ry="26.933001"
             rx="33.82"
             cy="176.2"
             cx="347.66"
             style="fill:#ffa6bb" /></g><g
           id="g856"><path
             id="path852"
             d="m 169.995,151.903 c -4.142,0 -7.5,-3.357 -7.5,-7.5 v -14.517 c 0,-4.143 3.358,-7.5 7.5,-7.5 4.142,0 7.5,3.357 7.5,7.5 v 14.517 c 0,4.143 -3.358,7.5 -7.5,7.5 z"
             style="fill:#414b58"
             inkscape:connector-curvature="0" /><path
             id="path854"
             d="m 342.005,151.903 c -4.142,0 -7.5,-3.357 -7.5,-7.5 v -14.517 c 0,-4.143 3.358,-7.5 7.5,-7.5 4.142,0 7.5,3.357 7.5,7.5 v 14.517 c 0,4.143 -3.358,7.5 -7.5,7.5 z"
             style="fill:#414b58"
             inkscape:connector-curvature="0" /></g><path
           id="path858"
           d="M 221.656,3.326 C 132.423,20.854 68.665,105.343 80.869,199.339 L 98.486,335.027 C 108.763,414.179 176.183,473.411 256,473.411 v 0 c 12.327,0 24.357,-1.417 35.928,-4.098 C 135.72,352.36 83.567,102.139 221.656,3.326 Z"
           style="opacity:0.05;enable-background:new"
           inkscape:connector-curvature="0" /><path
           id="path860"
           d="m 482.472,237.845 -73.052,38.413 c -9.218,4.847 -20.206,4.959 -29.521,0.3 L 278.701,225.94 c -14.29,-7.148 -31.112,-7.148 -45.402,0 l -101.198,50.617 c -9.315,4.659 -20.303,4.547 -29.521,-0.3 L 29.528,237.844 C 16.113,230.791 0.006,240.516 0,255.672 V 256 c 0,141.385 114.615,256 256,256 141.385,0 256,-114.615 256,-256 v -0.328 c -0.006,-15.156 -16.113,-24.881 -29.528,-17.827 z"
           style="fill:#eaeaea"
           inkscape:connector-curvature="0" /><path
           id="path862"
           d="m 160.963,262.121 -28.862,14.436 c -9.315,4.659 -20.303,4.547 -29.521,-0.3 L 29.528,237.844 C 16.113,230.791 0.006,240.516 0,255.672 V 256 c 0,141.385 114.615,256 256,256 51.627,0 99.675,-15.297 139.886,-41.584 C 247.404,492.945 181.677,390.987 160.963,262.121 Z"
           style="opacity:0.1;enable-background:new"
           inkscape:connector-curvature="0" /><g
           id="g874"
           style="opacity:0.1"><circle
             id="circle864"
             r="7.3829999"
             cy="340.34"
             cx="123.14" /><circle
             id="circle866"
             r="7.3829999"
             cy="356.79001"
             cx="86.75" /><circle
             id="circle868"
             r="7.3829999"
             cy="453.63"
             cx="164.34" /><circle
             id="circle870"
             r="7.3829999"
             cy="340.34"
             cx="398.63" /><circle
             id="circle872"
             r="7.3829999"
             cy="381.13"
             cx="425.25" /></g><path
           id="path876"
           d="m 250.648,129.331 -22.985,31.307 c -3.613,4.921 -2.712,11.813 2.043,15.641 l 15.943,12.833 c 6.044,4.865 14.66,4.865 20.703,0 l 15.943,-12.833 c 4.755,-3.828 5.655,-10.72 2.043,-15.641 l -22.985,-31.307 c -2.654,-3.614 -8.052,-3.614 -10.705,0 z"
           style="fill:#c27c59"
           inkscape:connector-curvature="0" /><path
           id="path878"
           d="m 253.634,127.06 c -1.143,0.433 -2.19,1.186 -2.987,2.271 l -22.985,31.307 c -3.613,4.92 -2.712,11.813 2.043,15.641 l 15.943,12.833 c 4.512,3.632 10.458,4.55 15.697,2.758 -17.871,-6.318 -12.892,-44.732 -7.711,-64.81 z"
           style="opacity:0.1;enable-background:new"
           inkscape:connector-curvature="0" /><g
           id="g880" /><g
           id="g882" /><g
           id="g884" /><g
           id="g886" /><g
           id="g888" /><g
           id="g890" /><g
           id="g892" /><g
           id="g894" /><g
           id="g896" /><g
           id="g898" /><g
           id="g900" /><g
           id="g902" /><g
           id="g904" /><g
           id="g906" /><g
           id="g908" /></g></g></g><g
     id="g10" /><g
     id="g12" /><g
     id="g14" /><g
     id="g16" /><g
     id="g18" /><g
     id="g20" /><g
     id="g22" /><g
     id="g24" /><g
     id="g26" /><g
     id="g28" /><g
     id="g30" /><g
     id="g32" /><g
     id="g34" /><g
     id="g36" /><g
     id="g38" /></svg>