<?xml version="1.0" encoding="UTF-8" standalone="no"?>
<!-- Generator: Adobe Illustrator 19.0.0, SVG Export Plug-In . SVG Version: 6.00 Build 0)  -->

<svg
   xmlns:dc="http://purl.org/dc/elements/1.1/"
   xmlns:cc="http://creativecommons.org/ns#"
   xmlns:rdf="http://www.w3.org/1999/02/22-rdf-syntax-ns#"
   xmlns:svg="http://www.w3.org/2000/svg"
   xmlns="http://www.w3.org/2000/svg"
   xmlns:sodipodi="http://sodipodi.sourceforge.net/DTD/sodipodi-0.dtd"
   xmlns:inkscape="http://www.inkscape.org/namespaces/inkscape"
   version="1.1"
   id="Layer_1"
   x="0px"
   y="0px"
   viewBox="0 0 512 512"
   style="enable-background:new 0 0 512 512;"
   xml:space="preserve"
   sodipodi:docname="cow.svg"
   inkscape:version="0.92.2 (5c3e80d, 2017-08-06)"><metadata
     id="metadata45"><rdf:RDF><cc:Work
         rdf:about=""><dc:format>image/svg+xml</dc:format><dc:type
           rdf:resource="http://purl.org/dc/dcmitype/StillImage" /><dc:title /></cc:Work></rdf:RDF></metadata><defs
     id="defs43" /><sodipodi:namedview
     pagecolor="#ffffff"
     bordercolor="#666666"
     borderopacity="1"
     objecttolerance="10"
     gridtolerance="10"
     guidetolerance="10"
     inkscape:pageopacity="0"
     inkscape:pageshadow="2"
     inkscape:window-width="1280"
     inkscape:window-height="945"
     id="namedview41"
     showgrid="false"
     inkscape:zoom="0.4609375"
     inkscape:cx="17.058161"
     inkscape:cy="367.38569"
     inkscape:window-x="-9"
     inkscape:window-y="-9"
     inkscape:window-maximized="1"
     inkscape:current-layer="g8" /><g
     id="g858"
     transform="translate(1.5340642)"><g
       transform="matrix(1.5673305,0,0,1,-145.23661,0)"
       id="g8"><rect
         style="opacity:1;fill:#5fbcd3;fill-opacity:1;stroke:none;stroke-width:0.34060571;stroke-linecap:butt;stroke-miterlimit:4;stroke-dasharray:none;stroke-dashoffset:0;stroke-opacity:1;paint-order:normal"
         id="rect841"
         width="326.3295"
         height="511.65939"
         x="92.858147"
         y="1.4060147"
         ry="29.706141" /><rect
         ry="27.39151"
         y="21.339638"
         x="108.95308"
         height="471.79214"
         width="294.83176"
         id="rect843"
         style="opacity:1;fill:#e5ff80;fill-opacity:1;stroke:none;stroke-width:0.31088212;stroke-linecap:butt;stroke-miterlimit:4;stroke-dasharray:none;stroke-dashoffset:0;stroke-opacity:1;paint-order:normal" /><g
         id="g994"
         transform="matrix(0.50285221,0,0,0.78813559,128.84318,54.236634)"><path
           id="path834"
           d="M 125.597,441.731 H 93.288 c -2.601,0 -4.71,2.606 -4.71,5.819 v 30.807 c 0,1.985 0.819,3.837 2.176,4.905 1.354,1.068 3.057,1.21 4.516,0.374 l 14.172,-8.124 14.172,8.124 c 0.63,0.361 1.306,0.539 1.982,0.539 0.883,0 1.764,-0.306 2.534,-0.913 1.356,-1.068 2.176,-2.919 2.176,-4.905 V 447.55 c 10e-4,-3.214 -2.108,-5.819 -4.709,-5.819 z"
           style="fill:#7c797b"
           inkscape:connector-curvature="0" /><path
           id="path836"
           d="m 88.578,301.509 v 48.822 105.953 h 41.729 V 356.051 C 111.496,340.458 97.203,321.903 88.578,301.509 Z"
           style="fill:#e2e0e1"
           inkscape:connector-curvature="0" /><path
           id="path838"
           d="m 88.578,362.047 v 85.502 8.735 22.072 c 0,1.985 0.819,3.837 2.176,4.905 1.354,1.068 3.057,1.21 4.516,0.374 l 11.171,-6.402 V 456.285 441.732 345.4 c -7.37,-8.394 -13.385,-17.362 -17.862,-26.775 -10e-4,0 -10e-4,43.422 -10e-4,43.422 z"
           style="opacity:0.1;fill:#231f20;enable-background:new"
           inkscape:connector-curvature="0" /><path
           id="path840"
           d="m 394.342,441.731 h -32.243 c -2.596,0 -4.701,2.606 -4.701,5.819 v 30.807 c 0,1.985 0.818,3.837 2.171,4.905 1.352,1.068 3.052,1.21 4.507,0.374 l 14.145,-8.124 14.142,8.124 c 0.63,0.361 1.306,0.539 1.978,0.539 0.884,0 1.762,-0.306 2.531,-0.913 1.352,-1.068 2.171,-2.919 2.171,-4.905 V 447.55 c 0.002,-3.214 -2.103,-5.819 -4.701,-5.819 z"
           style="fill:#7c797b"
           inkscape:connector-curvature="0" /><path
           id="path842"
           d="m 361.295,351.559 c 0.272,3.955 0.428,7.979 0.428,12.074 0,13.566 -1.555,26.436 -4.324,38.046 v 54.604 h 41.647 V 325.235 c -11.714,10.366 -24.368,19.194 -37.751,26.324 z"
           style="fill:#e2e0e1"
           inkscape:connector-curvature="0" /><path
           id="path844"
           d="m 281.538,409.383 c -5.932,0 -11.805,-0.177 -17.605,-0.525 1.969,26.536 23.062,47.425 48.811,47.425 27.05,0 48.979,-23.048 48.979,-51.477 0,-2.275 -0.155,-4.511 -0.428,-6.709 -24.473,7.245 -51.421,11.286 -79.757,11.286 z"
           style="fill:#f98080"
           inkscape:connector-curvature="0" /><path
           id="path846"
           d="m 361.295,400.922 c 0.272,2.091 0.428,4.218 0.428,6.383 0,7.172 -1.555,13.975 -4.324,20.113 v 20.131 8.735 22.072 c 0,1.985 0.818,3.837 2.171,4.905 1.352,1.068 3.052,1.21 4.507,0.374 l 11.183,-6.424 v -20.927 -14.553 -45.164 c -4.558,1.561 -9.213,3.018 -13.965,4.355 z"
           style="opacity:0.1;fill:#231f20;enable-background:new"
           inkscape:connector-curvature="0" /><g
           id="g852"><path
             id="path848"
             d="m 188.265,441.731 h -52.484 c -3.023,0 -5.474,2.606 -5.474,5.819 v 31.683 c 0,1.888 0.863,3.661 2.315,4.754 1.455,1.09 3.312,1.362 4.989,0.731 l 24.412,-9.207 24.41,9.207 c 0.597,0.225 1.217,0.334 1.832,0.334 1.114,0 2.222,-0.364 3.155,-1.065 1.452,-1.093 2.315,-2.865 2.315,-4.754 V 447.55 c 10e-4,-3.214 -2.448,-5.819 -5.47,-5.819 z"
             style="fill:#918d8f"
             inkscape:connector-curvature="0" /><path
             id="path850"
             d="m 456.996,441.731 h -52.481 c -3.022,0 -5.47,2.606 -5.47,5.819 v 31.683 c 0,1.888 0.861,3.661 2.315,4.754 1.45,1.09 3.312,1.362 4.987,0.731 l 24.412,-9.207 24.41,9.207 c 0.595,0.225 1.215,0.334 1.828,0.334 1.119,0 2.224,-0.364 3.162,-1.065 1.45,-1.093 2.315,-2.865 2.315,-4.754 V 447.55 c 0,-3.214 -2.453,-5.819 -5.478,-5.819 z"
             style="fill:#918d8f"
             inkscape:connector-curvature="0" /></g><path
           id="path854"
           d="m 471.008,236.686 c -2.642,0 -5.241,-1.248 -6.87,-3.578 -2.649,-3.79 -1.723,-9.01 2.066,-11.658 18.191,-12.712 29.05,-33.229 29.05,-54.885 0,-25.566 -14.65,-48.682 -38.236,-60.326 -4.147,-2.047 -5.848,-7.068 -3.801,-11.215 2.046,-4.146 7.067,-5.846 11.214,-3.801 29.342,14.486 47.569,43.356 47.569,75.342 0,27.12 -13.534,52.77 -36.204,68.611 -1.459,1.02 -3.132,1.51 -4.788,1.51 z"
           style="fill:#e2e0e1"
           inkscape:connector-curvature="0" /><path
           id="path856"
           d="m 281.538,147.045 c -14.437,0 -28.488,1.055 -42.07,2.939 0,0 -159.619,15.021 -159.34,141.052 3.896,29.094 22.193,55.468 50.178,76.098 v 89.149 h 63.428 v -57.755 c 26.558,8.397 56.323,13.132 87.801,13.132 43.836,0 84.378,-9.153 117.508,-24.653 v 69.277 h 63.428 V 338.473 c 13.612,-17.794 21.321,-37.863 21.321,-59.12 0.002,-73.067 -90.551,-132.308 -202.254,-132.308 z"
           style="fill:#efedee"
           inkscape:connector-curvature="0" /><g
           id="g864"><path
             id="path858"
             d="m 456.211,70.936 c 10.148,6.449 13.143,19.903 6.696,30.05 -6.449,10.147 -19.905,13.144 -30.051,6.695 -10.148,-6.449 -27.278,-28.886 -20.827,-39.033 6.45,-10.147 34.038,-4.162 44.182,2.288 z"
             style="fill:#918d8f"
             inkscape:connector-curvature="0" /><path
             id="path860"
             d="m 361.721,214.979 c 23.304,0 42.786,-16.307 47.691,-38.13 -26.427,-14.126 -58.416,-23.961 -93.492,-27.891 -1.995,5.331 -3.092,11.1 -3.092,17.128 -10e-4,27.002 21.89,48.893 48.893,48.893 z"
             style="fill:#918d8f"
             inkscape:connector-curvature="0" /><circle
             id="circle862"
             r="24.559999"
             cy="265.66501"
             cx="288.495"
             style="fill:#918d8f" /></g><g
           id="g870"><path
             id="path866"
             d="M 54.382,97.823 H 30.145 C 13.522,97.823 0,111.344 0,127.965 v 51.082 c 0,3.699 2.999,6.698 6.698,6.698 h 11.958 c 16.622,0 30.145,-13.523 30.145,-30.145 l 12.28,-51.081 c 0,-3.698 -3.001,-6.696 -6.699,-6.696 z"
             style="fill:#d3d3d3"
             inkscape:connector-curvature="0" /><path
             id="path868"
             d="m 210.44,97.823 h -23.121 c -3.699,0 -6.698,3 -6.698,6.698 l 11.164,51.081 c 0,16.622 13.523,30.145 30.145,30.145 h 11.958 c 3.7,0 6.698,-3 6.698,-6.698 V 127.967 C 240.584,111.344 227.063,97.823 210.44,97.823 Z"
             style="fill:#d3d3d3"
             inkscape:connector-curvature="0" /></g><g
           id="g876"><path
             id="path872"
             d="m 178.006,95.504 c -3.643,0 -6.995,-2.396 -8.046,-6.074 -1.27,-4.443 1.302,-9.075 5.744,-10.349 v 0 c 9.435,-2.716 35.562,-12.93 43.057,-27.397 2.304,-4.447 2.592,-8.771 0.909,-13.61 -1.517,-4.367 0.792,-9.139 5.159,-10.659 4.366,-1.514 9.141,0.79 10.658,5.158 3.166,9.102 2.519,18.386 -1.873,26.844 -12.163,23.428 -49.127,34.57 -53.302,35.762 -0.769,0.221 -1.543,0.325 -2.306,0.325 z"
             style="fill:#3a3637"
             inkscape:connector-curvature="0" /><path
             id="path874"
             d="m 60.681,95.504 c -0.761,0 -1.535,-0.105 -2.304,-0.325 C 54.202,93.987 17.238,82.845 5.074,59.417 0.683,50.958 0.036,41.674 3.201,32.573 c 1.519,-4.368 6.293,-6.674 10.66,-5.158 4.367,1.519 6.676,6.292 5.157,10.659 -1.685,4.844 -1.392,9.174 0.92,13.627 7.539,14.523 33.624,24.687 43.041,27.378 4.445,1.27 7.02,5.905 5.749,10.35 -1.051,3.678 -4.403,6.075 -8.047,6.075 z"
             style="fill:#3a3637"
             inkscape:connector-curvature="0" /></g><path
           id="path878"
           d="m 120.292,179.224 c 28.442,0 54.131,7.093 72.608,18.497 v -81.084 c 0,-20.258 -16.423,-36.688 -36.683,-36.688 H 84.365 c -20.258,0 -36.681,16.431 -36.681,36.688 v 81.084 c 18.477,-11.404 44.166,-18.497 72.608,-18.497 z"
           style="fill:#efedee"
           inkscape:connector-curvature="0" /><g
           id="g882"
           style="opacity:0.15"><path
             id="path880"
             d="m 65.546,116.637 c 0,-20.258 16.423,-36.688 36.681,-36.688 H 84.365 c -20.258,0 -36.681,16.431 -36.681,36.688 v 74.386 c 5.375,-3.318 11.376,-6.256 17.862,-8.776 z"
             style="fill:#231f20"
             inkscape:connector-curvature="0" /></g><path
           id="path884"
           d="m 222.112,234.285 c 0,34.108 -45.591,61.759 -101.819,61.759 -56.231,0 -101.819,-27.653 -101.819,-61.759 0,-34.108 45.589,-61.759 101.819,-61.759 56.228,-0.001 101.819,27.651 101.819,61.759 z"
           style="fill:#f98080"
           inkscape:connector-curvature="0" /><path
           id="path886"
           d="m 36.335,234.285 c 0,-24.587 20.866,-46.217 52.438,-58.738 -40.803,8.052 -70.3,31.304 -70.3,58.738 0,27.434 29.499,50.688 70.304,58.738 C 57.201,280.502 36.335,258.872 36.335,234.285 Z"
           style="opacity:0.15;fill:#231f20;enable-background:new"
           inkscape:connector-curvature="0" /><g
           id="g892"><path
             id="path888"
             d="m 92.019,228.324 c 0,4.554 -3.694,8.248 -8.259,8.248 -4.562,0 -8.253,-3.694 -8.253,-8.248 0,-4.563 3.692,-8.257 8.253,-8.257 4.565,0 8.259,3.695 8.259,8.257 z"
             style="fill:#af251e"
             inkscape:connector-curvature="0" /><path
             id="path890"
             d="m 164.016,228.317 c 0,4.553 -3.694,8.248 -8.257,8.248 -4.563,0 -8.257,-3.695 -8.257,-8.248 0,-4.564 3.694,-8.257 8.257,-8.257 4.563,0 8.257,3.693 8.257,8.257 z"
             style="fill:#af251e"
             inkscape:connector-curvature="0" /></g><g
           id="g898"><path
             id="path894"
             d="m 106.218,149.979 c -4.625,0 -8.373,-3.748 -8.373,-8.373 0,-2.693 -2.193,-4.884 -4.886,-4.884 -2.69,0 -4.88,2.191 -4.88,4.884 0,4.625 -3.748,8.373 -8.373,8.373 -4.624,0 -8.373,-3.748 -8.373,-8.373 0,-11.927 9.7,-21.63 21.625,-21.63 11.927,0 21.632,9.702 21.632,21.63 10e-4,4.625 -3.749,8.373 -8.372,8.373 z"
             style="fill:#3a3637"
             inkscape:connector-curvature="0" /><path
             id="path896"
             d="m 162.324,149.967 c -4.625,0 -8.373,-3.748 -8.373,-8.373 0,-2.693 -2.191,-4.883 -4.884,-4.883 -2.692,0 -4.882,2.19 -4.882,4.883 0,4.625 -3.75,8.373 -8.373,8.373 -4.625,0 -8.373,-3.748 -8.373,-8.373 0,-11.926 9.701,-21.629 21.628,-21.629 11.927,0 21.63,9.702 21.63,21.629 0,4.625 -3.75,8.373 -8.373,8.373 z"
             style="fill:#3a3637"
             inkscape:connector-curvature="0" /></g><g
           id="g904"><path
             id="path900"
             d="m 399.045,386.559 v 60.99 12.371 19.312 c 0,1.888 0.861,3.661 2.315,4.754 1.45,1.09 3.312,1.362 4.987,0.731 l 10.56,-3.982 V 459.92 441.731 376.933 c -5.477,3.302 -11.415,6.531 -17.862,9.626 z"
             style="opacity:0.15;fill:#231f20;enable-background:new"
             inkscape:connector-curvature="0" /><path
             id="path902"
             d="m 142.805,354.662 c -0.303,-0.224 -0.605,-0.451 -0.907,-0.678 l -0.027,-0.018 0.002,-0.002 c -22.176,-16.732 -37.658,-37.351 -41.783,-59.15 -6.935,-0.851 -13.618,-2.12 -19.963,-3.777 3.896,29.094 22.193,55.468 50.178,76.098 v 58.184 22.23 12.162 19.521 c 0,1.888 0.863,3.661 2.315,4.754 1.455,1.09 3.312,1.362 4.989,0.731 l 10.558,-3.982 v -21.024 -17.979 -16.413 -56.756 c 0.002,-8.319 -3.609,-12.405 -5.362,-13.901 z"
             style="opacity:0.1;fill:#231f20;enable-background:new"
             inkscape:connector-curvature="0" /></g><g
           id="g906" /><g
           id="g908" /><g
           id="g910" /><g
           id="g912" /><g
           id="g914" /><g
           id="g916" /><g
           id="g918" /><g
           id="g920" /><g
           id="g922" /><g
           id="g924" /><g
           id="g926" /><g
           id="g928" /><g
           id="g930" /><g
           id="g932" /><g
           id="g934" /></g></g></g><g
     id="g10" /><g
     id="g12" /><g
     id="g14" /><g
     id="g16" /><g
     id="g18" /><g
     id="g20" /><g
     id="g22" /><g
     id="g24" /><g
     id="g26" /><g
     id="g28" /><g
     id="g30" /><g
     id="g32" /><g
     id="g34" /><g
     id="g36" /><g
     id="g38" /></svg>