<?xml version="1.0" encoding="UTF-8" standalone="no"?>
<!-- Generator: Adobe Illustrator 19.0.0, SVG Export Plug-In . SVG Version: 6.00 Build 0)  -->

<svg
   xmlns:dc="http://purl.org/dc/elements/1.1/"
   xmlns:cc="http://creativecommons.org/ns#"
   xmlns:rdf="http://www.w3.org/1999/02/22-rdf-syntax-ns#"
   xmlns:svg="http://www.w3.org/2000/svg"
   xmlns="http://www.w3.org/2000/svg"
   xmlns:sodipodi="http://sodipodi.sourceforge.net/DTD/sodipodi-0.dtd"
   xmlns:inkscape="http://www.inkscape.org/namespaces/inkscape"
   version="1.1"
   id="Layer_1"
   x="0px"
   y="0px"
   viewBox="0 0 512 512"
   style="enable-background:new 0 0 512 512;"
   xml:space="preserve"
   sodipodi:docname="monkey.svg"
   inkscape:version="0.92.2 (5c3e80d, 2017-08-06)"><metadata
     id="metadata45"><rdf:RDF><cc:Work
         rdf:about=""><dc:format>image/svg+xml</dc:format><dc:type
           rdf:resource="http://purl.org/dc/dcmitype/StillImage" /><dc:title></dc:title></cc:Work></rdf:RDF></metadata><defs
     id="defs43" /><sodipodi:namedview
     pagecolor="#ffffff"
     bordercolor="#666666"
     borderopacity="1"
     objecttolerance="10"
     gridtolerance="10"
     guidetolerance="10"
     inkscape:pageopacity="0"
     inkscape:pageshadow="2"
     inkscape:window-width="1280"
     inkscape:window-height="945"
     id="namedview41"
     showgrid="false"
     inkscape:zoom="0.4609375"
     inkscape:cx="244.63249"
     inkscape:cy="499.64022"
     inkscape:window-x="-9"
     inkscape:window-y="-9"
     inkscape:window-maximized="1"
     inkscape:current-layer="g8" /><g
     id="g858"
     transform="translate(1.5340642)"><g
       transform="matrix(1.5673305,0,0,1,-145.23661,0)"
       id="g8"><rect
         style="opacity:1;fill:#5fbcd3;fill-opacity:1;stroke:none;stroke-width:0.34060571;stroke-linecap:butt;stroke-miterlimit:4;stroke-dasharray:none;stroke-dashoffset:0;stroke-opacity:1;paint-order:normal"
         id="rect841"
         width="326.3295"
         height="511.65939"
         x="92.858147"
         y="1.4060147"
         ry="29.706141" /><rect
         ry="27.39151"
         y="21.339638"
         x="108.95308"
         height="471.79214"
         width="294.83176"
         id="rect843"
         style="opacity:1;fill:#ffaaaa;fill-opacity:1;stroke:none;stroke-width:0.31088212;stroke-linecap:butt;stroke-miterlimit:4;stroke-dasharray:none;stroke-dashoffset:0;stroke-opacity:1;paint-order:normal" /><g
         id="g964"
         transform="matrix(0.51160604,0,0,0.80185575,124.04985,50.724927)"><path
           id="path834"
           d="m 333.566,464.169 c -11.823,0 -23.476,-4.032 -32.903,-11.891 -3.504,-2.919 -3.976,-8.125 -1.056,-11.629 2.919,-3.5 8.121,-3.976 11.629,-1.056 10.956,9.133 26.379,10.625 39.29,3.823 14.145,-7.452 21.242,-22.621 19.46,-41.613 -3.145,-33.548 1.169,-61.726 6.843,-74.774 10.698,-24.601 26.968,-37.226 40.04,-47.367 7.117,-5.524 13.262,-10.29 17.504,-16 5.677,-7.633 13.327,-22.315 0.79,-34.855 -3.734,-3.73 -9.52,-5.089 -14.746,-3.468 -2.44,0.758 -6.681,2.831 -7.665,8.173 -1.371,7.286 2.214,9.762 5.46,10.56 4.371,1.073 7.157,5.472 6.161,9.859 -0.992,4.387 -5.246,7.185 -9.645,6.286 -9.21,-1.907 -21.657,-11.395 -18.214,-29.726 1.835,-9.96 8.935,-17.794 18.996,-20.923 11.02,-3.44 23.31,-0.456 31.331,7.56 15.339,15.339 15.633,36.415 0.79,56.387 -5.589,7.52 -12.899,13.19 -20.637,19.194 -12.786,9.919 -26.008,20.177 -35.02,40.907 -3.355,7.714 -8.831,31.577 -5.544,66.645 2.399,25.605 -8.145,47.198 -28.21,57.766 -7.82,4.118 -16.279,6.142 -24.654,6.142 z"
           style="fill:#824641"
           inkscape:connector-curvature="0" /><path
           id="path836"
           d="m 90.977,445.935 c -0.317,-74.244 30.393,-103.386 46.008,-113.212 4.403,-2.771 10.205,-0.843 12.096,4.003 l 7.706,19.746 26.839,72.947 h 132.129 l 26.839,-72.947 7.706,-19.746 c 1.891,-4.846 7.694,-6.774 12.096,-4.003 15.615,9.826 46.325,38.968 46.008,113.212 h 37.408 C 449.406,283.928 348.787,247.741 348.787,247.741 H 150.594 c 0,0 -100.619,36.187 -97.025,198.194 z"
           style="fill:#965a50"
           inkscape:connector-curvature="0" /><path
           id="path838"
           d="m 249.691,478.968 66.328,-103.177 c -12.238,-26.947 -37.308,-45.468 -66.328,-45.468 -29.02,0 -54.09,18.522 -66.328,45.468 z"
           style="fill:#ebc9a0"
           inkscape:connector-curvature="0" /><path
           id="path840"
           d="m 150.594,247.742 c 0,0 -10.626,3.833 -24.829,14.476 25.017,35.739 71.132,59.846 123.926,59.846 52.794,0 98.909,-24.107 123.926,-59.846 -14.203,-10.643 -24.83,-14.476 -24.83,-14.476 z"
           style="fill:#824641"
           inkscape:connector-curvature="0" /><circle
           id="circle842"
           r="41.290001"
           cy="132.13"
           cx="134.08"
           style="fill:#965a50" /><circle
           id="circle844"
           r="24.774"
           cy="132.13"
           cx="134.08"
           style="fill:#ebc9a0" /><circle
           id="circle846"
           r="41.290001"
           cy="132.13"
           cx="365.29999"
           style="fill:#965a50" /><circle
           id="circle848"
           r="24.774"
           cy="132.13"
           cx="365.29999"
           style="fill:#ebc9a0" /><path
           id="path850"
           d="m 364.754,156.505 c -3.869,-6.676 -6.503,-13.972 -7.578,-21.542 l -1.975,-18.551 C 353.166,97.299 346.844,78.635 335.309,63.259 323.835,47.965 308.356,35.845 290.43,28.45 V 10.185 L 264.968,20.37 259.876,0 c -13.431,4.477 -24.89,13.873 -33.52,23.001 -47.823,10.657 -83.603,53.268 -83.607,104.302 -0.001,9.999 -2.632,19.901 -7.717,28.511 -8.096,13.709 -12.653,29.083 -12.653,45.339 0,57.656 56.999,104.396 127.312,104.396 70.313,0 127.312,-46.739 127.312,-104.396 0,-15.984 -4.406,-31.114 -12.249,-44.648 z"
           style="fill:#af6e5a"
           inkscape:connector-curvature="0" /><path
           id="path852"
           d="m 191.884,217.256 c 0,-18.893 4.557,-36.759 12.653,-52.692 5.085,-10.006 7.717,-21.514 7.717,-33.134 0,-81.882 52.714,-111.06 52.714,-111.06 L 259.876,0 c -13.431,4.477 -24.89,13.873 -33.52,23.001 -47.823,10.657 -83.603,53.268 -83.607,104.302 -0.001,9.999 -2.632,19.901 -7.717,28.511 -8.096,13.71 -12.653,29.083 -12.653,45.339 0,52.309 46.968,95.506 108.178,103.091 -23.82,-22.047 -38.673,-52.844 -38.673,-86.988 z"
           style="fill:#965a50"
           inkscape:connector-curvature="0" /><path
           id="path854"
           d="m 332.271,148.645 v -6.781 c 0,-16.941 -12.111,-32.236 -28.93,-34.262 -12.44,-1.499 -23.695,3.927 -30.464,12.928 -5.488,7.298 -13.722,11.643 -22.853,11.599 -0.111,-0.001 -0.222,-0.001 -0.333,-0.001 -0.111,0 -0.222,0 -0.333,0.001 -9.132,0.044 -17.366,-4.301 -22.854,-11.599 -6.769,-9.001 -18.023,-14.426 -30.463,-12.928 -16.82,2.026 -28.931,17.321 -28.931,34.262 v 6.781 c 0,8.175 2.976,15.648 7.899,21.41 3.742,4.38 4.906,10.26 3.296,15.792 -2.258,7.762 -3.293,16.041 -2.828,24.639 2.072,38.307 34.517,69.601 72.874,70.276 41.66,0.733 75.662,-32.818 75.662,-74.311 0,-7.199 -1.046,-14.146 -2.971,-20.721 -1.605,-5.484 -0.399,-11.316 3.316,-15.658 4.932,-5.764 7.913,-13.243 7.913,-21.427 z"
           style="fill:#faebc8"
           inkscape:connector-curvature="0" /><path
           id="path856"
           d="m 191.884,217.256 c 0,-18.893 4.557,-36.759 12.653,-52.692 5.085,-10.006 7.717,-21.514 7.717,-33.134 0,-7.549 0.574,-14.504 1.387,-21.175 -5.275,-2.373 -11.28,-3.414 -17.6,-2.653 -16.82,2.026 -28.931,17.321 -28.931,34.262 v 6.781 c 0,8.175 2.976,15.648 7.899,21.41 3.742,4.38 4.905,10.261 3.296,15.792 -2.258,7.762 -3.293,16.04 -2.828,24.639 1.105,20.435 10.905,38.818 25.583,51.678 -5.843,-13.899 -9.176,-29.014 -9.176,-44.908 z"
           style="fill:#f5dcb4"
           inkscape:connector-curvature="0" /><g
           id="g866"><path
             id="path858"
             d="m 233.175,198.194 c -1.077,0 -2.149,-0.25 -3.141,-0.661 -1.073,-0.415 -1.899,-0.992 -2.722,-1.734 -1.488,-1.569 -2.395,-3.718 -2.395,-5.863 0,-2.149 0.907,-4.294 2.395,-5.863 0.823,-0.746 1.649,-1.323 2.722,-1.738 3.056,-1.319 6.69,-0.577 9.004,1.738 0.331,0.411 0.661,0.823 0.988,1.238 0.331,0.496 0.581,0.992 0.746,1.484 0.246,0.496 0.411,0.992 0.496,1.488 0.081,0.577 0.165,1.157 0.165,1.653 0,2.145 -0.911,4.294 -2.395,5.863 -1.569,1.483 -3.718,2.395 -5.863,2.395 z"
             style="fill:#4b3f4e"
             inkscape:connector-curvature="0" /><path
             id="path860"
             d="m 266.207,198.194 c -1.077,0 -2.149,-0.25 -3.141,-0.661 -0.988,-0.415 -1.899,-0.992 -2.722,-1.734 -1.488,-1.569 -2.395,-3.718 -2.395,-5.863 0,-2.149 0.907,-4.294 2.395,-5.863 0.823,-0.746 1.734,-1.323 2.722,-1.738 1.984,-0.907 4.294,-0.907 6.278,0 0.992,0.415 1.899,0.992 2.726,1.738 0.331,0.411 0.661,0.823 0.988,1.238 0.331,0.496 0.581,0.992 0.746,1.484 0.246,0.496 0.411,0.992 0.496,1.488 0.081,0.577 0.165,1.157 0.165,1.653 0,2.145 -0.911,4.294 -2.395,5.863 -0.827,0.742 -1.734,1.319 -2.726,1.734 -0.992,0.411 -2.065,0.661 -3.137,0.661 z"
             style="fill:#4b3f4e"
             inkscape:connector-curvature="0" /><path
             id="path862"
             d="m 212.684,222.968 c -5.486,0 -9.515,5.275 -7.994,10.546 5.194,18.003 23.373,31.295 45.001,31.295 21.628,0 39.807,-13.292 45.001,-31.295 1.521,-5.271 -2.508,-10.546 -7.994,-10.546 z"
             style="fill:#4b3f4e"
             inkscape:connector-curvature="0" /><path
             id="path864"
             d="m 200.142,165.161 v 0 c -9.122,0 -16.516,-7.395 -16.516,-16.516 v -8.258 c 0,-9.122 7.395,-16.516 16.516,-16.516 v 0 c 9.122,0 16.516,7.395 16.516,16.516 v 8.258 c 0,9.122 -7.394,16.516 -16.516,16.516 z"
             style="fill:#4b3f4e"
             inkscape:connector-curvature="0" /></g><path
           id="path868"
           d="m 197.135,367.286 c -7.114,-15.117 -26.004,-20.375 -39.905,-11.107 -12.72,8.48 -16.015,25.742 -7.314,38.312 l 58.484,84.477 h 41.29 z"
           style="fill:#af6e5a"
           inkscape:connector-curvature="0" /><path
           id="path870"
           d="M 317.052,478.968 H 182.33 c -17.526,0 -31.736,14.209 -31.736,31.736 V 512 h 198.194 v -1.296 c -0.001,-17.528 -14.209,-31.736 -31.736,-31.736 z"
           style="fill:#f5dcb4"
           inkscape:connector-curvature="0" /><path
           id="path872"
           d="m 342.152,356.178 c -13.901,-9.268 -32.791,-4.01 -39.905,11.107 l -52.556,111.682 h 41.29 l 58.484,-84.477 c 8.703,-12.569 5.407,-29.832 -7.313,-38.312 z"
           style="fill:#af6e5a"
           inkscape:connector-curvature="0" /><circle
           id="circle874"
           r="8.2580004"
           cy="140.39"
           cx="200.14"
           style="fill:#ffffff" /><path
           id="path876"
           d="m 299.239,165.161 v 0 c -9.122,0 -16.516,-7.395 -16.516,-16.516 v -8.258 c 0,-9.122 7.395,-16.516 16.516,-16.516 v 0 c 9.122,0 16.516,7.395 16.516,16.516 v 8.258 c 0,9.122 -7.394,16.516 -16.516,16.516 z"
           style="fill:#4b3f4e"
           inkscape:connector-curvature="0" /><circle
           id="circle878"
           r="8.2580004"
           cy="140.39"
           cx="299.23999"
           style="fill:#ffffff" /><path
           id="path880"
           d="m 55.829,482.258 c 1.821,16.855 15.95,29.741 32.903,29.741 L 109.304,512 c 4.561,0 8.258,-3.698 8.258,-8.258 v -8.258 c 0,-9.122 -7.394,-16.516 -16.516,-16.516 h -8.258 c -1.339,-11.92 -1.94,-22.875 -1.991,-33.032 H 53.443 c 0.259,11.478 1.007,23.547 2.386,36.322 z"
           style="fill:#f5dcb4"
           inkscape:connector-curvature="0" /><rect
           id="rect882"
           height="33.029999"
           width="16.516001"
           style="fill:#ebc9a0"
           y="478.97"
           x="241.42999" /><path
           id="path884"
           d="m 443.552,482.258 c -1.821,16.855 -15.95,29.741 -32.903,29.741 L 390.078,512 c -4.561,0 -8.258,-3.698 -8.258,-8.258 v -8.258 c 0,-9.122 7.394,-16.516 16.516,-16.516 h 8.258 c 1.339,-11.92 1.94,-22.875 1.991,-33.032 h 37.353 c -0.259,11.478 -1.006,23.547 -2.386,36.322 z"
           style="fill:#f5dcb4"
           inkscape:connector-curvature="0" /><g
           id="g886" /><g
           id="g888" /><g
           id="g890" /><g
           id="g892" /><g
           id="g894" /><g
           id="g896" /><g
           id="g898" /><g
           id="g900" /><g
           id="g902" /><g
           id="g904" /><g
           id="g906" /><g
           id="g908" /><g
           id="g910" /><g
           id="g912" /><g
           id="g914" /></g></g></g><g
     id="g10" /><g
     id="g12" /><g
     id="g14" /><g
     id="g16" /><g
     id="g18" /><g
     id="g20" /><g
     id="g22" /><g
     id="g24" /><g
     id="g26" /><g
     id="g28" /><g
     id="g30" /><g
     id="g32" /><g
     id="g34" /><g
     id="g36" /><g
     id="g38" /></svg>