<?xml version="1.0" encoding="UTF-8" standalone="no"?>
<!-- Generator: Adobe Illustrator 19.0.0, SVG Export Plug-In . SVG Version: 6.00 Build 0)  -->

<svg
   xmlns:dc="http://purl.org/dc/elements/1.1/"
   xmlns:cc="http://creativecommons.org/ns#"
   xmlns:rdf="http://www.w3.org/1999/02/22-rdf-syntax-ns#"
   xmlns:svg="http://www.w3.org/2000/svg"
   xmlns="http://www.w3.org/2000/svg"
   xmlns:sodipodi="http://sodipodi.sourceforge.net/DTD/sodipodi-0.dtd"
   xmlns:inkscape="http://www.inkscape.org/namespaces/inkscape"
   version="1.1"
   id="Layer_1"
   x="0px"
   y="0px"
   viewBox="0 0 512 512"
   style="enable-background:new 0 0 512 512;"
   xml:space="preserve"
   sodipodi:docname="owl.svg"
   inkscape:version="0.92.2 (5c3e80d, 2017-08-06)"><metadata
     id="metadata45"><rdf:RDF><cc:Work
         rdf:about=""><dc:format>image/svg+xml</dc:format><dc:type
           rdf:resource="http://purl.org/dc/dcmitype/StillImage" /><dc:title></dc:title></cc:Work></rdf:RDF></metadata><defs
     id="defs43" /><sodipodi:namedview
     pagecolor="#ffffff"
     bordercolor="#666666"
     borderopacity="1"
     objecttolerance="10"
     gridtolerance="10"
     guidetolerance="10"
     inkscape:pageopacity="0"
     inkscape:pageshadow="2"
     inkscape:window-width="1280"
     inkscape:window-height="945"
     id="namedview41"
     showgrid="false"
     inkscape:zoom="0.65186406"
     inkscape:cx="61.666651"
     inkscape:cy="416.60877"
     inkscape:window-x="-9"
     inkscape:window-y="-9"
     inkscape:window-maximized="1"
     inkscape:current-layer="g8" /><g
     id="g858"
     transform="translate(1.5340642)"><g
       transform="matrix(1.5673305,0,0,1,-145.23661,0)"
       id="g8"><rect
         style="opacity:1;fill:#5fbcd3;fill-opacity:1;stroke:none;stroke-width:0.34060571;stroke-linecap:butt;stroke-miterlimit:4;stroke-dasharray:none;stroke-dashoffset:0;stroke-opacity:1;paint-order:normal"
         id="rect841"
         width="326.3295"
         height="511.65939"
         x="92.858147"
         y="1.4060147"
         ry="29.706141" /><rect
         ry="27.39151"
         y="21.339638"
         x="108.95308"
         height="471.79214"
         width="294.83176"
         id="rect843"
         style="opacity:1;fill:#ffe680;fill-opacity:1;stroke:none;stroke-width:0.31088212;stroke-linecap:butt;stroke-miterlimit:4;stroke-dasharray:none;stroke-dashoffset:0;stroke-opacity:1;paint-order:normal" /><g
         id="g961"
         transform="matrix(0.4853193,0,0,0.76065573,130.77924,65.272051)"><path
           id="path834"
           d="M 122.732,365.831 C 99.664,390.25 34.29,419.797 9.871,396.728 -14.548,373.66 11.234,306.712 34.303,282.293 c 23.068,-24.419 61.565,-25.514 85.984,-2.446 24.419,23.068 25.514,61.565 2.445,85.984 z"
           style="fill:#596675"
           inkscape:connector-curvature="0" /><path
           id="path836"
           d="m 120.287,279.847 c -24.419,-23.069 -62.916,-21.974 -85.984,2.446 -1.876,1.986 -3.77,4.257 -5.653,6.759 4.197,42.635 19.503,79.084 45.068,107.5 19.839,-7.806 38.676,-19.777 49.015,-30.721 23.068,-24.419 21.973,-62.916 -2.446,-85.984 z"
           style="opacity:0.1;enable-background:new"
           inkscape:connector-curvature="0" /><path
           id="path838"
           d="m 389.268,365.831 c 23.068,24.419 88.442,53.966 112.862,30.897 24.419,-23.068 -1.363,-90.016 -24.432,-114.435 -23.068,-24.419 -61.565,-25.514 -85.984,-2.446 -24.42,23.068 -25.515,61.565 -2.446,85.984 z"
           style="fill:#596675"
           inkscape:connector-curvature="0" /><path
           id="path840"
           d="m 391.713,279.847 c 24.419,-23.069 62.916,-21.974 85.984,2.446 1.876,1.986 3.77,4.257 5.653,6.759 -4.197,42.635 -19.503,79.084 -45.068,107.5 -19.839,-7.806 -38.676,-19.777 -49.015,-30.721 -23.068,-24.419 -21.973,-62.916 2.446,-85.984 z"
           style="opacity:0.1;enable-background:new"
           inkscape:connector-curvature="0" /><path
           id="path842"
           d="M 464.547,264.432 C 464.547,138.355 371.177,36.149 256,36.149 c -115.177,0 -208.547,102.206 -208.547,228.283 0,126.077 93.37,180.023 208.547,180.023 115.177,0 208.547,-53.946 208.547,-180.023 z"
           style="fill:#596675"
           inkscape:connector-curvature="0" /><path
           id="path844"
           d="M 464.547,264.432 C 464.547,138.355 371.177,36.149 256,36.149 c -115.177,0 -208.547,102.206 -208.547,228.283 0,126.077 93.37,180.023 208.547,180.023 115.177,0 208.547,-53.946 208.547,-180.023 z"
           style="opacity:0.1;enable-background:new"
           inkscape:connector-curvature="0" /><path
           id="path846"
           d="m 256,167.362 c -75.42,0 -136.56,66.4 -136.56,148.308 0,48.074 21.068,90.798 53.717,117.898 25.395,7.352 53.403,10.887 82.843,10.887 29.44,0 57.448,-3.534 82.843,-10.887 32.649,-27.1 53.717,-69.823 53.717,-117.898 C 392.559,233.762 331.42,167.362 256,167.362 Z"
           style="fill:#8090a0"
           inkscape:connector-curvature="0" /><g
           id="g854"
           style="opacity:0.1"><path
             id="path848"
             d="m 256,337.137 c -1.919,0 -3.839,-0.732 -5.303,-2.197 l -19.16,-19.159 c -2.929,-2.929 -2.929,-7.678 0,-10.607 2.929,-2.929 7.678,-2.929 10.606,0 L 256,319.031 269.856,305.175 c 2.929,-2.929 7.678,-2.929 10.607,0 2.929,2.929 2.929,7.678 0,10.607 l -19.16,19.159 c -1.464,1.464 -3.384,2.196 -5.303,2.196 z"
             inkscape:connector-curvature="0" /><path
             id="path850"
             d="m 195.808,374.092 c -1.989,0 -3.897,-0.79 -5.303,-2.197 l -19.16,-19.16 c -2.929,-2.929 -2.929,-7.678 0,-10.607 2.929,-2.929 7.678,-2.929 10.606,0 l 13.856,13.857 13.856,-13.857 c 2.929,-2.929 7.678,-2.929 10.606,0 2.929,2.929 2.929,7.678 0,10.607 l -19.159,19.16 c -1.405,1.407 -3.313,2.197 -5.302,2.197 z"
             inkscape:connector-curvature="0" /><path
             id="path852"
             d="m 316.192,374.092 v 0 c -1.989,0 -3.897,-0.79 -5.303,-2.197 l -19.159,-19.16 c -2.929,-2.929 -2.929,-7.678 0,-10.607 2.929,-2.929 7.678,-2.93 10.606,0 l 13.856,13.857 13.856,-13.857 c 2.929,-2.929 7.678,-2.929 10.607,0 2.929,2.929 2.929,7.678 0,10.607 l -19.16,19.16 c -1.406,1.407 -3.313,2.197 -5.303,2.197 z"
             inkscape:connector-curvature="0" /></g><path
           id="path856"
           d="M 226.186,38.481 C 125.134,54.318 47.453,149.437 47.453,264.432 c 0,126.077 93.37,180.023 208.547,180.023 8.815,0 17.5,-0.32 26.027,-0.96 C 63.811,423.364 151.819,109.139 226.186,38.481 Z"
           style="opacity:0.1;enable-background:new"
           inkscape:connector-curvature="0" /><path
           id="path858"
           d="m 470.847,28.915 v 0 c -36.123,20.94 -77.136,31.968 -118.89,31.968 H 160.042 c -41.754,0 -82.767,-11.028 -118.89,-31.968 v 0 C 28.292,21.46 12.688,32.96 16.068,47.436 c 6.708,28.727 22.591,55.692 52.42,68.758 -9.684,16.537 -15.241,35.784 -15.241,56.332 0,61.659 49.984,111.643 111.643,111.643 37.614,0 70.883,-18.602 91.111,-47.108 20.228,28.506 53.496,47.108 91.111,47.108 61.659,0 111.643,-49.984 111.643,-111.643 0,-20.548 -5.557,-39.795 -15.241,-56.332 29.829,-13.067 45.712,-40.031 52.42,-68.758 C 499.312,32.96 483.708,21.46 470.847,28.915 Z"
           style="fill:#596675"
           inkscape:connector-curvature="0" /><g
           id="g864"><circle
             id="circle860"
             r="70.580002"
             cy="172.53"
             cx="164.89"
             style="fill:#ffffff" /><circle
             id="circle862"
             r="70.580002"
             cy="172.53"
             cx="347.10999"
             style="fill:#ffffff" /></g><path
           id="path866"
           d="m 271.813,197.263 23.809,24.587 c 4.302,4.442 4.867,11.305 1.35,16.391 l -35.45,51.262 c -2.67,3.86 -8.375,3.86 -11.045,0 l -35.45,-51.262 c -3.517,-5.086 -2.952,-11.948 1.35,-16.391 l 23.809,-24.587 z"
           style="opacity:0.1;enable-background:new"
           inkscape:connector-curvature="0" /><path
           id="path868"
           d="m 240.187,197.263 -16.16,14.566 c -5.146,4.638 -6.173,12.322 -2.426,18.15 l 27.316,42.481 c 3.315,5.156 10.852,5.156 14.167,0 L 290.4,229.979 c 3.747,-5.827 2.72,-13.511 -2.426,-18.15 l -16.16,-14.566 c -8.987,-8.1 -22.641,-8.1 -31.627,0 z"
           style="fill:#fbdd56"
           inkscape:connector-curvature="0" /><path
           id="path870"
           d="m 254.686,191.247 c -5.215,0.29 -10.354,2.28 -14.499,6.016 l -16.16,14.566 c -5.146,4.638 -6.173,12.322 -2.426,18.149 l 27.316,42.481 c 2.044,3.178 5.69,4.39 8.964,3.65 -9.099,-15.989 -7.491,-68.331 -3.195,-84.862 z"
           style="opacity:0.1;enable-background:new"
           inkscape:connector-curvature="0" /><g
           id="g876"><path
             id="path872"
             d="m 195.716,485.424 v 0 c -17.025,0 -30.827,-13.802 -30.827,-30.827 v -20.285 c 0,-17.025 13.802,-30.827 30.827,-30.827 v 0 c 17.025,0 30.827,13.802 30.827,30.827 v 20.285 c 0.001,17.025 -13.801,30.827 -30.827,30.827 z"
             style="fill:#fbdd56"
             inkscape:connector-curvature="0" /><path
             id="path874"
             d="m 316.283,485.424 v 0 c 17.025,0 30.827,-13.802 30.827,-30.827 v -20.285 c 0,-17.025 -13.802,-30.827 -30.827,-30.827 v 0 c -17.025,0 -30.827,13.802 -30.827,30.827 v 20.285 c 0,17.025 13.802,30.827 30.827,30.827 z"
             style="fill:#fbdd56"
             inkscape:connector-curvature="0" /></g><g
           id="g882"><path
             id="path878"
             d="m 165.795,185.314 c -4.142,0 -7.5,-3.358 -7.5,-7.5 v -15.225 c 0,-4.142 3.358,-7.5 7.5,-7.5 4.142,0 7.5,3.358 7.5,7.5 v 15.225 c 0,4.142 -3.358,7.5 -7.5,7.5 z"
             style="fill:#414b58"
             inkscape:connector-curvature="0" /><path
             id="path880"
             d="m 346.205,185.314 c -4.142,0 -7.5,-3.358 -7.5,-7.5 v -15.225 c 0,-4.142 3.358,-7.5 7.5,-7.5 4.142,0 7.5,3.358 7.5,7.5 v 15.225 c 0,4.142 -3.358,7.5 -7.5,7.5 z"
             style="fill:#414b58"
             inkscape:connector-curvature="0" /></g><g
           id="g884" /><g
           id="g886" /><g
           id="g888" /><g
           id="g890" /><g
           id="g892" /><g
           id="g894" /><g
           id="g896" /><g
           id="g898" /><g
           id="g900" /><g
           id="g902" /><g
           id="g904" /><g
           id="g906" /><g
           id="g908" /><g
           id="g910" /><g
           id="g912" /></g></g></g><g
     id="g10" /><g
     id="g12" /><g
     id="g14" /><g
     id="g16" /><g
     id="g18" /><g
     id="g20" /><g
     id="g22" /><g
     id="g24" /><g
     id="g26" /><g
     id="g28" /><g
     id="g30" /><g
     id="g32" /><g
     id="g34" /><g
     id="g36" /><g
     id="g38" /></svg>