<?xml version="1.0" encoding="UTF-8" standalone="no"?>
<!-- Generator: Adobe Illustrator 19.0.0, SVG Export Plug-In . SVG Version: 6.00 Build 0)  -->

<svg
   xmlns:dc="http://purl.org/dc/elements/1.1/"
   xmlns:cc="http://creativecommons.org/ns#"
   xmlns:rdf="http://www.w3.org/1999/02/22-rdf-syntax-ns#"
   xmlns:svg="http://www.w3.org/2000/svg"
   xmlns="http://www.w3.org/2000/svg"
   xmlns:sodipodi="http://sodipodi.sourceforge.net/DTD/sodipodi-0.dtd"
   xmlns:inkscape="http://www.inkscape.org/namespaces/inkscape"
   version="1.1"
   id="Layer_1"
   x="0px"
   y="0px"
   viewBox="0 0 512 512"
   style="enable-background:new 0 0 512 512;"
   xml:space="preserve"
   sodipodi:docname="pigeon.svg"
   inkscape:version="0.92.2 (5c3e80d, 2017-08-06)"><metadata
     id="metadata45"><rdf:RDF><cc:Work
         rdf:about=""><dc:format>image/svg+xml</dc:format><dc:type
           rdf:resource="http://purl.org/dc/dcmitype/StillImage" /><dc:title></dc:title></cc:Work></rdf:RDF></metadata><defs
     id="defs43" /><sodipodi:namedview
     pagecolor="#ffffff"
     bordercolor="#666666"
     borderopacity="1"
     objecttolerance="10"
     gridtolerance="10"
     guidetolerance="10"
     inkscape:pageopacity="0"
     inkscape:pageshadow="2"
     inkscape:window-width="1280"
     inkscape:window-height="945"
     id="namedview41"
     showgrid="false"
     inkscape:zoom="0.65186406"
     inkscape:cx="208.29986"
     inkscape:cy="153.06713"
     inkscape:window-x="-9"
     inkscape:window-y="-9"
     inkscape:window-maximized="1"
     inkscape:current-layer="g8" /><g
     id="g858"
     transform="translate(1.5340642)"><g
       transform="matrix(1.5673305,0,0,1,-145.23661,0)"
       id="g8"><rect
         style="opacity:1;fill:#5fbcd3;fill-opacity:1;stroke:none;stroke-width:0.34060571;stroke-linecap:butt;stroke-miterlimit:4;stroke-dasharray:none;stroke-dashoffset:0;stroke-opacity:1;paint-order:normal"
         id="rect841"
         width="326.3295"
         height="511.65939"
         x="92.858147"
         y="1.4060147"
         ry="29.706141" /><rect
         ry="27.39151"
         y="21.339638"
         x="108.95308"
         height="471.79214"
         width="294.83176"
         id="rect843"
         style="opacity:1;fill:#ffe680;fill-opacity:1;stroke:none;stroke-width:0.31088212;stroke-linecap:butt;stroke-miterlimit:4;stroke-dasharray:none;stroke-dashoffset:0;stroke-opacity:1;paint-order:normal" /><g
         id="g931"
         transform="matrix(1.1195894,0,0,1.7547665,127.57194,58.24484)"><g
           id="g862"><g
             id="g838"><path
               id="path834"
               d="m 91.495,200.003 h 9.2 v -24.084 c 0,-2.54 -2.06,-4.6 -4.601,-4.6 v 0 c -2.54,0 -4.6,2.06 -4.6,4.6 v 24.084 z"
               style="fill:#db9f15"
               inkscape:connector-curvature="0" /><path
               id="path836"
               d="m 77.575,207.445 h 31.982 c 2.055,0 3.721,-1.665 3.721,-3.721 v 0 c 0,-2.055 -1.666,-3.721 -3.721,-3.721 H 77.575 c -2.055,0 -3.721,1.666 -3.721,3.721 v 0 c 0,2.055 1.667,3.721 3.721,3.721 z"
               style="fill:#db9f15"
               inkscape:connector-curvature="0" /></g><g
             id="g844"><path
               id="path840"
               d="m 111.207,200.003 h 9.2 v -24.084 c 0,-2.54 -2.06,-4.6 -4.601,-4.6 v 0 c -2.54,0 -4.6,2.06 -4.6,4.6 v 24.084 z"
               style="fill:#ffb819"
               inkscape:connector-curvature="0" /><path
               id="path842"
               d="m 97.287,207.445 h 31.982 c 2.055,0 3.721,-1.665 3.721,-3.721 v 0 c 0,-2.055 -1.666,-3.721 -3.721,-3.721 H 97.287 c -2.055,0 -3.721,1.666 -3.721,3.721 v 0 c 0,2.055 1.666,3.721 3.721,3.721 z"
               style="fill:#ffb819"
               inkscape:connector-curvature="0" /></g><path
             id="path846"
             d="m 15.644,97.46 v 0 c 0,50.767 41.155,91.922 91.922,91.922 v 0 c 41.259,0 74.706,-33.447 74.706,-74.706 V 97.46 Z"
             style="fill:#5c6670"
             inkscape:connector-curvature="0" /><path
             id="path848"
             d="m 54.358,22.506 v 0 c -21.381,0 -38.714,17.333 -38.714,38.714 v 36.24 c 0,28.961 23.478,52.438 52.438,52.438 H 78 c 8.324,0 15.073,-6.748 15.073,-15.073 V 61.22 C 93.073,39.839 75.74,22.506 54.358,22.506 Z"
             style="fill:#868d94"
             inkscape:connector-curvature="0" /><path
             id="path850"
             d="M 16.39,62.983 C 7.338,62.983 0,70.321 0,79.373 v 0 h 25.825 v -16.39 z"
             style="fill:#f4cd00"
             inkscape:connector-curvature="0" /><g
             id="g856"><circle
               id="circle852"
               r="11.814"
               cy="58.345001"
               cx="49.167999"
               style="fill:#ffffff" /><circle
               id="circle854"
               r="5.9070001"
               cy="58.345001"
               cx="49.167999"
               style="fill:#004987" /></g><path
             id="path858"
             d="m 195.405,48.831 c -13.837,0 -25.053,11.216 -25.053,25.052 V 97.46 h 10.969 c 26.857,0 48.63,-21.772 48.63,-48.629 z"
             style="fill:#5c6670"
             inkscape:connector-curvature="0" /><path
             id="path860"
             d="m 106.556,113.338 c -14.07,0 -25.478,11.406 -25.478,25.477 v 4.606 c 0,14.071 11.407,25.477 25.478,25.477 h 6.014 c 22.312,0 40.4,-18.088 40.4,-40.4 v -15.16 z"
             style="fill:#41484f"
             inkscape:connector-curvature="0" /></g><g
           id="g864" /><g
           id="g866" /><g
           id="g868" /><g
           id="g870" /><g
           id="g872" /><g
           id="g874" /><g
           id="g876" /><g
           id="g878" /><g
           id="g880" /><g
           id="g882" /><g
           id="g884" /><g
           id="g886" /><g
           id="g888" /><g
           id="g890" /><g
           id="g892" /></g></g></g><g
     id="g10" /><g
     id="g12" /><g
     id="g14" /><g
     id="g16" /><g
     id="g18" /><g
     id="g20" /><g
     id="g22" /><g
     id="g24" /><g
     id="g26" /><g
     id="g28" /><g
     id="g30" /><g
     id="g32" /><g
     id="g34" /><g
     id="g36" /><g
     id="g38" /></svg>