<?xml version="1.0" encoding="UTF-8" standalone="no"?>
<!-- Generator: Adobe Illustrator 18.0.0, SVG Export Plug-In . SVG Version: 6.00 Build 0)  -->

<svg
   xmlns:dc="http://purl.org/dc/elements/1.1/"
   xmlns:cc="http://creativecommons.org/ns#"
   xmlns:rdf="http://www.w3.org/1999/02/22-rdf-syntax-ns#"
   xmlns:svg="http://www.w3.org/2000/svg"
   xmlns="http://www.w3.org/2000/svg"
   xmlns:sodipodi="http://sodipodi.sourceforge.net/DTD/sodipodi-0.dtd"
   xmlns:inkscape="http://www.inkscape.org/namespaces/inkscape"
   version="1.1"
   id="Capa_1"
   x="0px"
   y="0px"
   viewBox="0 0 488.631 488.631"
   style="enable-background:new 0 0 488.631 488.631;"
   xml:space="preserve"
   sodipodi:docname="rotate-icon.svg"
   inkscape:version="0.92.2 (5c3e80d, 2017-08-06)"><metadata
     id="metadata45"><rdf:RDF><cc:Work
         rdf:about=""><dc:format>image/svg+xml</dc:format><dc:type
           rdf:resource="http://purl.org/dc/dcmitype/StillImage" /></cc:Work></rdf:RDF></metadata><defs
     id="defs43" /><sodipodi:namedview
     pagecolor="#ffffff"
     bordercolor="#666666"
     borderopacity="1"
     objecttolerance="10"
     gridtolerance="10"
     guidetolerance="10"
     inkscape:pageopacity="0"
     inkscape:pageshadow="2"
     inkscape:window-width="1280"
     inkscape:window-height="945"
     id="namedview41"
     showgrid="false"
     inkscape:zoom="0.34151987"
     inkscape:cx="-387.19275"
     inkscape:cy="379.21995"
     inkscape:window-x="-9"
     inkscape:window-y="-9"
     inkscape:window-maximized="1"
     inkscape:current-layer="g8" /><g
     id="g8"><path
       style="fill:#1a1a1a"
       d="M443.762,251.057H282.306v34.625l161.592,0.072l-0.079,168.314c0,0-0.016,0-0.057,0l-161.464-0.064   c-0.006,12.669-3.686,24.393-9.667,34.626h171.131c19.138,0,34.699-15.561,34.699-34.697V285.754   C478.461,266.634,462.9,251.057,443.762,251.057z"
       id="path2" /><path
       style="fill:#1a1a1a"
       d="M213.053,100.678H44.867c-19.128,0-34.697,15.569-34.697,34.697v318.558   c0,19.136,15.569,34.697,34.697,34.697h80.338h87.848c19.122,0,34.691-15.561,34.691-34.697V135.375   C247.744,116.247,232.175,100.678,213.053,100.678z M44.867,135.232l168.314,0.143l-0.072,283.972H44.748L44.867,135.232z    M110.633,453.017c0-10.113,8.202-18.316,18.308-18.316c10.146,0,18.349,8.202,18.349,18.316c0,10.122-8.202,18.341-18.349,18.341   C118.835,471.357,110.633,463.139,110.633,453.017z"
       id="path4" /><path
       style="fill:#1a1a1a"
       d="m 302.28064,73.180584 v 23.054 c 0,1.673 -1.003,3.171 -2.558,3.814996 -1.528,0.629 -3.312,0.279 -4.483,-0.898996 l -40.455,-40.448 c -1.602,-1.616 -1.602,-4.221 0,-5.837 l 40.455,-40.448 c 1.171,-1.171 2.955,-1.53 4.483,-0.9 1.555,0.638 2.558,2.143 2.558,3.815 v 23.293 c 71.068,1.306 128.511,59.434 128.511,130.803996 0,9.541 -7.732,17.273 -17.273,17.273 -9.55,0 -17.29,-7.732 -17.29,-17.273 0,-52.322 -41.929,-94.950996 -93.948,-96.248996 z"
       id="path6"
       inkscape:connector-curvature="0" /></g><g
     id="g10" /><g
     id="g12" /><g
     id="g14" /><g
     id="g16" /><g
     id="g18" /><g
     id="g20" /><g
     id="g22" /><g
     id="g24" /><g
     id="g26" /><g
     id="g28" /><g
     id="g30" /><g
     id="g32" /><g
     id="g34" /><g
     id="g36" /><g
     id="g38" /></svg>