<?xml version="1.0" encoding="UTF-8" standalone="no"?>
<!-- Generator: Adobe Illustrator 19.0.0, SVG Export Plug-In . SVG Version: 6.00 Build 0)  -->

<svg
   xmlns:dc="http://purl.org/dc/elements/1.1/"
   xmlns:cc="http://creativecommons.org/ns#"
   xmlns:rdf="http://www.w3.org/1999/02/22-rdf-syntax-ns#"
   xmlns:svg="http://www.w3.org/2000/svg"
   xmlns="http://www.w3.org/2000/svg"
   xmlns:sodipodi="http://sodipodi.sourceforge.net/DTD/sodipodi-0.dtd"
   xmlns:inkscape="http://www.inkscape.org/namespaces/inkscape"
   version="1.1"
   id="Layer_1"
   x="0px"
   y="0px"
   viewBox="0 0 512 512"
   style="enable-background:new 0 0 512 512;"
   xml:space="preserve"
   sodipodi:docname="seahorse.svg"
   inkscape:version="0.92.2 (5c3e80d, 2017-08-06)"><metadata
     id="metadata45"><rdf:RDF><cc:Work
         rdf:about=""><dc:format>image/svg+xml</dc:format><dc:type
           rdf:resource="http://purl.org/dc/dcmitype/StillImage" /><dc:title /></cc:Work></rdf:RDF></metadata><defs
     id="defs43" /><sodipodi:namedview
     pagecolor="#ffffff"
     bordercolor="#666666"
     borderopacity="1"
     objecttolerance="10"
     gridtolerance="10"
     guidetolerance="10"
     inkscape:pageopacity="0"
     inkscape:pageshadow="2"
     inkscape:window-width="1280"
     inkscape:window-height="945"
     id="namedview41"
     showgrid="false"
     inkscape:zoom="0.65186406"
     inkscape:cx="252.65097"
     inkscape:cy="254.74545"
     inkscape:window-x="-9"
     inkscape:window-y="-9"
     inkscape:window-maximized="1"
     inkscape:current-layer="g8" /><g
     id="g858"
     transform="translate(1.5340642)"><g
       transform="matrix(1.5673305,0,0,1,-145.23661,0)"
       id="g8"><rect
         style="opacity:1;fill:#5fbcd3;fill-opacity:1;stroke:none;stroke-width:0.34060571;stroke-linecap:butt;stroke-miterlimit:4;stroke-dasharray:none;stroke-dashoffset:0;stroke-opacity:1;paint-order:normal"
         id="rect841"
         width="326.3295"
         height="511.65939"
         x="92.858147"
         y="1.4060147"
         ry="29.706141" /><rect
         ry="27.39151"
         y="21.339638"
         x="108.95308"
         height="471.79214"
         width="294.83176"
         id="rect843"
         style="opacity:1;fill:#ff8080;fill-opacity:1;stroke:none;stroke-width:0.31088212;stroke-linecap:butt;stroke-miterlimit:4;stroke-dasharray:none;stroke-dashoffset:0;stroke-opacity:1;paint-order:normal" /><g
         id="g937"
         transform="matrix(0.49718462,0,0,0.77925261,127.74196,56.511331)"><path
           id="path834"
           d="m 263.325,164.864 c -0.01,0.199 -0.01,0.408 -0.01,0.606 0,7.586 5.674,13.96 13.197,14.827 15.37,1.787 28.045,8.537 37.355,18.108 3.929,4.023 7.252,8.547 9.927,13.416 5.11,9.279 7.868,19.79 7.931,30.406 0.031,5.517 -0.658,11.065 -2.132,16.488 -3.041,11.191 -9.394,21.849 -19.487,30.574 -5.81,5.026 -12.069,9.55 -18.693,13.51 -27.376,16.353 -43.771,46.247 -43.771,78.127 v 26.143 c 0,14.723 5.966,28.035 15.611,37.679 9.634,9.644 22.967,15.611 37.679,15.611 12.121,0 23.082,-4.911 31.023,-12.852 7.941,-7.952 12.852,-18.923 12.852,-31.033 0,-6.708 -5.496,-12.142 -12.236,-12.016 -6.635,0.125 -11.818,5.831 -11.797,12.466 0.031,7.032 -5.977,12.612 -13.009,12.612 h -0.825 c -7.649,0 -13.845,-6.196 -13.845,-13.845 v -8.098 c 0,-25.36 20.762,-45.871 46.226,-45.443 24.921,0.418 44.669,21.264 44.669,46.195 v 17.157 c 0,47.773 -38.724,86.496 -86.496,86.496 h -16.468 c -63.446,0 -114.886,-51.43 -114.886,-114.876 V 334.836 L 98.755,357.145 V 210.411 L 166.14,232.72 V 50.698 C 166.139,22.695 188.835,0 216.838,0 h 44.91 c 26.394,0 50.301,10.7 67.594,28.003 17.303,17.293 28.003,41.2 28.003,67.605 0,9.571 7.764,17.335 17.345,17.335 h 38.557 v 37.616 H 278.653 c -8.077,0 -15.004,6.238 -15.328,14.305 z"
           style="fill:#ffd41d"
           inkscape:connector-curvature="0" /><polygon
           id="polygon836"
           points="166.139,334.837 98.754,357.145 98.754,210.411 166.139,232.719 "
           style="fill:#ffa91f" /><path
           id="path838"
           d="M 309.488,511.164 C 305.57,511.718 301.568,512 297.493,512 H 281.025 C 217.579,512 166.139,460.57 166.139,397.124 V 50.699 c 0,-28.003 22.695,-50.698 50.698,-50.698 h 42.318 c -28.003,0 -50.698,22.695 -50.698,50.698 v 346.425 c 0,58.755 44.115,107.206 101.031,114.04 z"
           style="fill:#efc71d"
           inkscape:connector-curvature="0" /><path
           id="path844"
           d="m 225.077,37.395 c 0.993,15.096 1.615,30.267 4.694,45.129 2.3,11.101 5.418,21.898 9.255,32.556 2.903,8.065 6.613,15.8 9.699,23.788 -12.149,-6.422 -21.339,-17.655 -27.206,-29.916 -6.605,-13.804 -9.087,-29.968 -6.73,-45.091 1.454,-9.335 4.587,-18.829 10.288,-26.466 z"
           style="fill:#efc71d"
           inkscape:connector-curvature="0" /><g
           id="g852"><path
             id="path846"
             d="m 150.34,253.868 c -0.7,3.772 -4.002,6.405 -7.701,6.405 -0.47,0 -0.961,-0.042 -1.442,-0.136 l -42.444,-7.889 v -15.945 l 45.307,8.422 c 4.253,0.794 7.063,4.89 6.28,9.143 z"
             style="fill:#e2901a"
             inkscape:connector-curvature="0" /><path
             id="path848"
             d="m 144.061,319.696 -45.307,8.422 v -15.945 l 42.444,-7.889 c 4.253,-0.784 8.349,2.017 9.143,6.28 0.782,4.253 -2.028,8.338 -6.28,9.132 z"
             style="fill:#e2901a"
             inkscape:connector-curvature="0" /><path
             id="path850"
             d="m 133.6,282.216 c 0,4.326 -3.511,7.837 -7.837,7.837 H 98.753 V 274.38 h 27.011 c 4.327,-10e-4 7.836,3.5 7.836,7.836 z"
             style="fill:#e2901a"
             inkscape:connector-curvature="0" /></g><polygon
           id="polygon854"
           points="133.182,127.759 133.182,42.078 186.472,58.796 187.517,114.176 "
           style="fill:#ffa91f" /><g
           id="g860"><path
             id="path856"
             d="m 168.041,78.043 c -0.721,3.751 -4.002,6.353 -7.68,6.353 -0.491,0 -0.993,-0.042 -1.494,-0.136 l -25.684,-4.942 v -15.82 c 0.491,0 0.993,0.052 1.484,0.146 l 27.167,5.224 c 4.242,0.816 7.032,4.923 6.207,9.175 z"
             style="fill:#e2901a"
             inkscape:connector-curvature="0" /><path
             id="path858"
             d="m 161.833,107.948 -27.167,5.224 c -0.502,0.094 -0.993,0.146 -1.484,0.146 v -15.82 l 25.684,-4.942 c 4.253,-0.815 8.359,1.964 9.174,6.217 0.826,4.254 -1.964,8.36 -6.207,9.175 z"
             style="fill:#e2901a"
             inkscape:connector-curvature="0" /></g><g
           id="g866"><path
             id="path862"
             d="m 323.792,211.821 c -9.874,3.229 -29.654,8.359 -55.557,8.359 -15.684,0 -33.614,-1.881 -52.976,-7.21 -4.169,-1.149 -6.625,-5.454 -5.475,-9.634 1.149,-4.169 5.465,-6.625 9.634,-5.475 42.402,11.661 77.625,5.245 94.448,0.543 3.93,4.024 7.252,8.548 9.926,13.417 z"
             style="fill:#efc71d"
             inkscape:connector-curvature="0" /><path
             id="path864"
             d="m 331.723,242.228 c 0.031,5.517 -0.658,11.065 -2.132,16.488 -13.991,2.8 -36.979,6.322 -64.136,6.322 -10.083,0 -20.731,-0.491 -31.723,-1.682 -4.305,-0.46 -7.408,-4.326 -6.949,-8.631 0.47,-4.305 4.315,-7.408 8.631,-6.949 42.382,4.587 80.292,-2.037 96.309,-5.548 z"
             style="fill:#efc71d"
             inkscape:connector-curvature="0" /></g><g
           id="g868" /><g
           id="g870" /><g
           id="g872" /><g
           id="g874" /><g
           id="g876" /><g
           id="g878" /><g
           id="g880" /><g
           id="g882" /><g
           id="g884" /><g
           id="g886" /><g
           id="g888" /><g
           id="g890" /><g
           id="g892" /><g
           id="g894" /><g
           id="g896" /></g><path
         inkscape:connector-curvature="0"
         style="fill:#414b58;stroke-width:0.66267931"
         d="m 277.32535,124.54353 c -2.19299,0 -3.96994,-2.78589 -3.96994,-6.22221 0,-4.3456 -2.25599,-7.88147 -5.02859,-7.88147 -2.77209,0 -5.02807,3.53504 -5.02807,7.88147 0,3.43632 -1.77695,6.22221 -3.96994,6.22221 -2.193,0 -3.96995,-2.78589 -3.96995,-6.22221 0,-11.20745 5.81729,-20.325901 12.96796,-20.325901 7.15119,0 12.96848,9.117621 12.96848,20.325901 0,3.43632 -1.77748,6.22221 -3.96995,6.22221 z"
         id="path854" /></g></g><g
     id="g10" /><g
     id="g12" /><g
     id="g14" /><g
     id="g16" /><g
     id="g18" /><g
     id="g20" /><g
     id="g22" /><g
     id="g24" /><g
     id="g26" /><g
     id="g28" /><g
     id="g30" /><g
     id="g32" /><g
     id="g34" /><g
     id="g36" /><g
     id="g38" /></svg>