<?xml version="1.0" encoding="UTF-8" standalone="no"?>
<!-- Generator: Adobe Illustrator 19.0.0, SVG Export Plug-In . SVG Version: 6.00 Build 0)  -->

<svg
   xmlns:dc="http://purl.org/dc/elements/1.1/"
   xmlns:cc="http://creativecommons.org/ns#"
   xmlns:rdf="http://www.w3.org/1999/02/22-rdf-syntax-ns#"
   xmlns:svg="http://www.w3.org/2000/svg"
   xmlns="http://www.w3.org/2000/svg"
   xmlns:sodipodi="http://sodipodi.sourceforge.net/DTD/sodipodi-0.dtd"
   xmlns:inkscape="http://www.inkscape.org/namespaces/inkscape"
   version="1.1"
   id="Layer_1"
   x="0px"
   y="0px"
   viewBox="0 0 512 512"
   style="enable-background:new 0 0 512 512;"
   xml:space="preserve"
   sodipodi:docname="squirrel.svg"
   inkscape:version="0.92.2 (5c3e80d, 2017-08-06)"><metadata
     id="metadata45"><rdf:RDF><cc:Work
         rdf:about=""><dc:format>image/svg+xml</dc:format><dc:type
           rdf:resource="http://purl.org/dc/dcmitype/StillImage" /><dc:title></dc:title></cc:Work></rdf:RDF></metadata><defs
     id="defs43" /><sodipodi:namedview
     pagecolor="#ffffff"
     bordercolor="#666666"
     borderopacity="1"
     objecttolerance="10"
     gridtolerance="10"
     guidetolerance="10"
     inkscape:pageopacity="0"
     inkscape:pageshadow="2"
     inkscape:window-width="1280"
     inkscape:window-height="945"
     id="namedview41"
     showgrid="false"
     inkscape:zoom="0.4609375"
     inkscape:cx="474.82626"
     inkscape:cy="328.33484"
     inkscape:window-x="-9"
     inkscape:window-y="-9"
     inkscape:window-maximized="1"
     inkscape:current-layer="g8" /><g
     id="g858"
     transform="translate(1.5340642)"><g
       transform="matrix(1.5673305,0,0,1,-145.23661,0)"
       id="g8"><rect
         style="opacity:1;fill:#5fbcd3;fill-opacity:1;stroke:none;stroke-width:0.34060571;stroke-linecap:butt;stroke-miterlimit:4;stroke-dasharray:none;stroke-dashoffset:0;stroke-opacity:1;paint-order:normal"
         id="rect841"
         width="326.3295"
         height="511.65939"
         x="92.858147"
         y="1.4060147"
         ry="29.706141" /><rect
         ry="27.39151"
         y="21.339638"
         x="108.95308"
         height="471.79214"
         width="294.83176"
         id="rect843"
         style="opacity:1;fill:#ddff55;fill-opacity:1;stroke:none;stroke-width:0.31088212;stroke-linecap:butt;stroke-miterlimit:4;stroke-dasharray:none;stroke-dashoffset:0;stroke-opacity:1;paint-order:normal" /><g
         id="g928"
         transform="matrix(0.4758171,0,0,0.74576265,133.21166,65.084341)"><path
           id="path834"
           d="m 500.666,259.312 c 0,7.775 -1.293,17.532 -3.764,26.463 -4.734,17.205 -15.38,37.612 -39.144,46.272 -9.534,3.46 -13.717,2.623 -20.038,-5.048 -16.71,-20.674 -16.255,-45.864 -6.416,-70.455 0.038,-0.104 0.086,-0.2 0.124,-0.295 0.095,-0.237 0.191,-0.475 0.295,-0.713 3.783,-9.116 7.557,-14.734 7.652,-14.914 l 61.263,17.338 c 0.01,0.05 0.028,0.516 0.028,1.352 z"
           style="fill:#ab2300"
           inkscape:connector-curvature="0" /><g
           id="g840"><path
             id="path836"
             d="m 500.666,259.312 c -0.061,7.706 -1.324,17.679 -3.707,26.482 -52.812,-14.949 -26.79,-7.583 -34.286,-9.705 -6.159,-1.74 -12.528,2.024 -13.973,8.26 -5.104,22.119 -1.207,35.598 9.059,47.699 -9.534,3.46 -13.717,2.623 -20.038,-5.048 -16.71,-20.674 -16.255,-45.864 -6.416,-70.455 0.038,-0.104 0.086,-0.2 0.124,-0.295 4.182,-9.382 7.946,-15.455 7.946,-15.627 l 61.263,17.338 c 0.01,0.049 0.028,0.515 0.028,1.351 z"
             style="fill:#891c00"
             inkscape:connector-curvature="0" /><path
             id="path838"
             d="m 488.709,206.326 -8.53,30.143 c -0.804,2.843 -3.79,4.511 -6.633,3.706 l -1.774,-0.502 c -2.843,-0.804 -4.511,-3.79 -3.706,-6.633 l 8.53,-30.143 c 0.932,-3.293 4.388,-5.223 7.679,-4.292 l 0.141,0.04 c 3.292,0.933 5.224,4.389 4.293,7.681 z"
             style="fill:#891c00"
             inkscape:connector-curvature="0" /></g><path
           id="path842"
           d="m 485.661,217.097 -5.482,19.372 c -0.804,2.843 -3.79,4.511 -6.633,3.706 l -1.774,-0.502 c -2.843,-0.804 -4.511,-3.79 -3.706,-6.633 l 5.482,-19.372 z"
           style="fill:#781900"
           inkscape:connector-curvature="0" /><path
           id="path844"
           d="m 510.803,268.385 c -0.722,2.551 -3.408,4.096 -6.011,3.36 -80.877,-22.944 -76.286,-21.451 -77.272,-22.021 -1.879,-1.082 -2.881,-3.359 -2.262,-5.548 4.711,-16.647 22.262,-26.829 39.356,-21.992 22.351,6.346 34.417,7.24 42.681,20.924 4.555,7.444 5.971,16.572 3.508,25.277 z"
           style="fill:#ab2300"
           inkscape:connector-curvature="0" /><g
           id="g850"><path
             id="path846"
             d="m 264.856,486.135 c -20.593,-2.217 -32.843,-17.85 -32.843,-17.85 C 194.292,425.14 195.2,384.12 208.213,351.586 l -0.206,-0.495 C 231.023,282.744 231.033,229.638 223.97,191.752 213.833,137.336 170.833,94.552 116.067,86.458 78.552,80.9 50.051,91.542 32.84,104.267 13.536,118.549 1.977,135.759 0.1,165.839 c -1.227,19.52 8.734,53.694 41.351,67.677 0,0 68.45,23.614 89.6,-45.465 3.619,-11.848 14.705,42.959 15.849,55.168 1.258,13.374 -0.794,27.058 -5.28,39.659 -3.661,10.26 -15.488,25.841 -8.095,36.793 1.217,1.794 4.537,6.032 7.94,10.209 5.259,6.445 7.342,14.911 5.661,23.057 l -0.031,0.134 c -1.805,8.724 0.722,17.788 6.775,24.336 7.868,8.497 12.343,19.593 12.508,31.173 0.371,26.202 12.611,75.204 98.499,77.597 z"
             style="fill:#ff9811"
             inkscape:connector-curvature="0" /><path
             id="path848"
             d="m 343.91,29.077 c -25.72,56.104 -16.579,92.748 -16.579,92.748 l 51.146,-1.08 c -0.997,-47.22 -15.63,-78.196 -24.099,-92.269 -2.459,-4.087 -8.48,-3.734 -10.468,0.601 z"
             style="fill:#ff9811"
             inkscape:connector-curvature="0" /></g><path
           id="path852"
           d="m 474.359,463.717 c 0,12.457 -10.198,22.645 -22.645,22.645 -86.496,-0.103 -167.599,0.031 -183.386,0.031 -23.501,0 -37.69,-18.108 -37.69,-18.108 -86.537,-98.994 30.224,-186.758 30.224,-186.758 l 57.684,-57.685 c 5.259,-5.249 5.207,-13.777 -0.103,-18.974 l -0.124,-0.124 c -17.644,-17.654 -21.253,-44.207 -10.858,-65.522 -3.217,-6.466 -20.325,-43.959 -14.736,-99.788 0.464,-4.713 6.001,-6.971 9.6,-3.908 5.496,4.64 13.148,11.993 21.376,22.542 8.456,10.889 17.52,25.161 25.398,43.382 23.377,-8.786 50.858,-3.836 69.595,14.89 l 24.099,24.099 c 8.497,8.497 8.497,22.408 0,30.905 -0.01,0 -22.531,22.738 -35.267,35.184 -4.228,4.125 -5.372,10.518 -2.733,15.798 6.032,12.013 5.878,26.378 -0.433,38.267 h 24.707 c 6.218,0 11.89,2.547 15.983,6.661 4.114,4.094 6.661,9.755 6.661,15.983 0,12.457 -10.188,22.645 -22.645,22.645 h -50.642 c 15.097,14.065 26.182,32.73 30.822,54.436 6.228,29.11 -0.371,57.984 -15.983,80.752 h 58.448 c 6.228,0 11.89,2.547 15.983,6.651 4.107,4.106 6.665,9.778 6.665,15.996 z"
           style="fill:#ffa733"
           inkscape:connector-curvature="0" /><circle
           id="circle854"
           r="11.169"
           cy="149.63499"
           cx="400.62601"
           style="fill:#aa6100" /><path
           id="path856"
           d="m 352.473,215.696 c 5.311,5.197 5.362,13.725 0.103,18.964 l -57.685,57.695 c 0,0 -116.761,87.754 -30.224,186.758 0,0 2.671,3.413 7.631,7.28 h -3.97 c -23.501,0 -37.69,-18.108 -37.69,-18.108 -86.537,-98.994 30.224,-186.758 30.224,-186.758 l 57.685,-57.685 c 5.259,-5.249 5.207,-13.777 -0.103,-18.974 l -0.124,-0.124 c -17.644,-17.654 -21.253,-44.207 -10.858,-65.522 -3.217,-6.466 -20.325,-43.959 -14.736,-99.788 0.464,-4.713 6.001,-6.971 9.6,-3.908 5.496,4.64 13.148,11.993 21.376,22.542 0.742,0.959 1.485,1.939 2.238,2.949 -2.588,49.858 12.539,82.99 15.55,89.033 -10.394,21.315 -6.785,47.868 10.858,65.522 z"
           style="fill:#ff9811"
           inkscape:connector-curvature="0" /><path
           id="path858"
           d="M 264.853,486.135 C 244.26,483.918 232.01,468.285 232.01,468.285 194.289,425.14 195.197,384.12 208.21,351.586 l -0.206,-0.495 C 231.02,282.744 231.03,229.638 223.967,191.752 213.83,137.336 170.83,94.552 116.064,86.458 78.549,80.9 50.048,91.542 32.837,104.267 c -4.362,3.228 -8.332,6.61 -11.89,10.26 16.365,-6.579 37.473,-10.147 62.634,-6.414 54.766,8.095 97.767,50.879 107.903,105.294 7.064,37.886 7.053,90.992 -15.963,159.339 l 0.206,0.495 c -6.301,15.746 -9.755,33.472 -7.383,52.467 5.816,26.171 27.13,58.54 96.529,60.469 z"
           style="fill:#ee8700"
           inkscape:connector-curvature="0" /><path
           id="path860"
           d="m 409.25,360.32 c -4.64,-21.706 -15.726,-40.371 -30.822,-54.436 0,0 19.737,66.934 14.839,135.188 15.612,-22.769 22.211,-51.642 15.983,-80.752 z"
           style="fill:#ffb655"
           inkscape:connector-curvature="0" /><g
           id="g862" /><g
           id="g864" /><g
           id="g866" /><g
           id="g868" /><g
           id="g870" /><g
           id="g872" /><g
           id="g874" /><g
           id="g876" /><g
           id="g878" /><g
           id="g880" /><g
           id="g882" /><g
           id="g884" /><g
           id="g886" /><g
           id="g888" /><g
           id="g890" /></g></g></g><g
     id="g10" /><g
     id="g12" /><g
     id="g14" /><g
     id="g16" /><g
     id="g18" /><g
     id="g20" /><g
     id="g22" /><g
     id="g24" /><g
     id="g26" /><g
     id="g28" /><g
     id="g30" /><g
     id="g32" /><g
     id="g34" /><g
     id="g36" /><g
     id="g38" /></svg>