<?xml version="1.0" encoding="UTF-8" standalone="no"?>
<!-- Generator: Adobe Illustrator 19.0.0, SVG Export Plug-In . SVG Version: 6.00 Build 0)  -->

<svg
   xmlns:dc="http://purl.org/dc/elements/1.1/"
   xmlns:cc="http://creativecommons.org/ns#"
   xmlns:rdf="http://www.w3.org/1999/02/22-rdf-syntax-ns#"
   xmlns:svg="http://www.w3.org/2000/svg"
   xmlns="http://www.w3.org/2000/svg"
   xmlns:sodipodi="http://sodipodi.sourceforge.net/DTD/sodipodi-0.dtd"
   xmlns:inkscape="http://www.inkscape.org/namespaces/inkscape"
   version="1.1"
   id="Layer_1"
   x="0px"
   y="0px"
   viewBox="0 0 512 512"
   style="enable-background:new 0 0 512 512;"
   xml:space="preserve"
   sodipodi:docname="tucan.svg"
   inkscape:version="0.92.2 (5c3e80d, 2017-08-06)"><metadata
     id="metadata45"><rdf:RDF><cc:Work
         rdf:about=""><dc:format>image/svg+xml</dc:format><dc:type
           rdf:resource="http://purl.org/dc/dcmitype/StillImage" /><dc:title></dc:title></cc:Work></rdf:RDF></metadata><defs
     id="defs43" /><sodipodi:namedview
     pagecolor="#ffffff"
     bordercolor="#666666"
     borderopacity="1"
     objecttolerance="10"
     gridtolerance="10"
     guidetolerance="10"
     inkscape:pageopacity="0"
     inkscape:pageshadow="2"
     inkscape:window-width="1280"
     inkscape:window-height="945"
     id="namedview41"
     showgrid="false"
     inkscape:zoom="0.4609375"
     inkscape:cx="190.62287"
     inkscape:cy="367.38569"
     inkscape:window-x="-9"
     inkscape:window-y="-9"
     inkscape:window-maximized="1"
     inkscape:current-layer="g8" /><g
     id="g858"
     transform="translate(1.5340642)"><g
       transform="matrix(1.5673305,0,0,1,-145.23661,0)"
       id="g8"><rect
         style="opacity:1;fill:#5fbcd3;fill-opacity:1;stroke:none;stroke-width:0.34060571;stroke-linecap:butt;stroke-miterlimit:4;stroke-dasharray:none;stroke-dashoffset:0;stroke-opacity:1;paint-order:normal"
         id="rect841"
         width="326.3295"
         height="511.65939"
         x="92.858147"
         y="1.4060147"
         ry="29.706141" /><rect
         ry="27.39151"
         y="21.339638"
         x="108.95308"
         height="471.79214"
         width="294.83176"
         id="rect843"
         style="opacity:1;fill:#ffe680;fill-opacity:1;stroke:none;stroke-width:0.31088212;stroke-linecap:butt;stroke-miterlimit:4;stroke-dasharray:none;stroke-dashoffset:0;stroke-opacity:1;paint-order:normal" /><g
         id="g940"
         transform="matrix(0.48122416,0,0,0.75423729,131.82784,62.91504)"><path
           id="path834"
           d="m 169.005,392.416 -16.381,34.21 c -16.301,34.044 -57.114,48.429 -91.16,32.128 v 0 c -7.749,-3.711 -11.023,-13 -7.313,-20.75 l 39.178,-81.823 c 10.006,-20.897 35.058,-29.727 55.955,-19.721 v 0 c 20.898,10.008 29.727,35.059 19.721,55.956 z"
           style="fill:#4a5058"
           inkscape:connector-curvature="0" /><path
           id="path836"
           d="m 149.285,336.463 v 0 c -20.897,-10.006 -45.949,-1.177 -55.955,19.72 l -5.655,11.811 c 14.873,19.737 38.354,30.63 64.79,30.63 4.808,0 9.511,-0.381 14.091,-1.09 l 2.45,-5.117 c 10.005,-20.898 1.176,-45.949 -19.721,-55.954 z"
           style="opacity:0.15;enable-background:new"
           inkscape:connector-curvature="0" /><g
           id="g842"><path
             id="path838"
             d="m 235.576,325.019 h 19.579 c 37.746,0 68.345,-30.599 68.345,-68.345 v 0 c 0,-8.592 -6.965,-15.556 -15.556,-15.556 h -72.368 c -23.169,0 -41.951,18.782 -41.951,41.951 v 0 c 0,23.168 18.782,41.95 41.951,41.95 z"
             style="fill:#4a5058"
             inkscape:connector-curvature="0" /><path
             id="path840"
             d="m 248.259,300.679 c 0,-52.996 -16.29,-95.958 -81.416,-95.958 -65.126,0 -81.416,42.962 -81.416,95.958 0,52.996 36.451,84.477 81.416,84.477 44.965,0 81.416,-31.481 81.416,-84.477 z"
             style="fill:#4a5058"
             inkscape:connector-curvature="0" /></g><path
           id="path844"
           d="m 166.843,204.721 v 67.604 c 0,30.576 24.787,55.362 55.362,55.362 v 0 c 8.584,0 16.713,-1.955 23.963,-5.442 1.352,-6.935 2.09,-14.147 2.09,-21.566 10e-4,-52.996 -16.289,-95.958 -81.415,-95.958 z"
           style="fill:#ffffff"
           inkscape:connector-curvature="0" /><path
           id="path846"
           d="m 166.843,204.721 c -39.461,0 -60.989,15.776 -71.831,39.997 11.724,8.492 26.129,13.513 41.713,13.513 h 106.712 c -8.592,-31.703 -30.199,-53.51 -76.594,-53.51 z"
           style="opacity:0.1;enable-background:new"
           inkscape:connector-curvature="0" /><path
           id="path848"
           d="m 490.88,253.323 v 0 c -13.588,-7.992 -29.067,-12.206 -44.831,-12.206 H 244.507 V 188.16 H 476.284 L 512,213.404 v 27.839 c 0,10.838 -11.777,17.574 -21.12,12.08 z"
           style="fill:#f4b759"
           inkscape:connector-curvature="0" /><path
           id="path850"
           d="m 490.88,253.323 v 0 c -13.588,-7.992 -29.067,-12.206 -44.831,-12.206 H 244.507 V 188.16 H 476.284 L 512,213.404 v 27.839 c 0,10.838 -11.777,17.574 -21.12,12.08 z"
           style="opacity:0.1;enable-background:new"
           inkscape:connector-curvature="0" /><path
           id="path852"
           d="M 244.507,241.117 H 136.725 c -39.326,0 -71.207,-31.88 -71.207,-71.207 v 0 c 0,-68.142 55.239,-123.381 123.381,-123.381 h 55.607 z"
           style="fill:#4a5058"
           inkscape:connector-curvature="0" /><path
           id="path854"
           d="M 503.926,233.773 488.345,220.788 C 470.207,205.673 447.344,197.396 423.733,197.396 H 244.507 V 46.529 H 348.82 c 90.122,0 163.18,73.058 163.18,163.18 v 20.282 c 0,4.174 -4.868,6.454 -8.074,3.782 z"
           style="fill:#f4b759"
           inkscape:connector-curvature="0" /><path
           id="path856"
           d="m 164.248,241.117 h 80.26 V 94.15 h -61.113 c -42.319,0 -76.624,34.306 -76.624,76.624 v 12.864 c -0.002,31.745 25.733,57.479 57.477,57.479 z"
           style="fill:#ffffff"
           inkscape:connector-curvature="0" /><path
           id="path858"
           d="m 182.808,165.047 c -4.523,0 -8.19,-3.667 -8.19,-8.19 0,-3.084 -2.508,-5.593 -5.592,-5.593 -3.084,0 -5.593,2.509 -5.593,5.593 0,4.523 -3.667,8.19 -8.19,8.19 -4.523,0 -8.19,-3.667 -8.19,-8.19 0,-12.116 9.856,-21.973 21.973,-21.973 12.115,0 21.971,9.856 21.971,21.973 10e-4,4.523 -3.666,8.19 -8.189,8.19 z"
           style="fill:#4a5058"
           inkscape:connector-curvature="0" /><path
           id="path860"
           d="m 90.723,256.531 c -3.822,13.216 -5.295,28.228 -5.295,44.148 0,14.859 2.868,28.025 7.983,39.282 20.575,-2.688 36.465,-20.275 36.465,-41.582 v 0 c 0,-22.228 -17.29,-40.407 -39.153,-41.848 z"
           style="opacity:0.15;enable-background:new"
           inkscape:connector-curvature="0" /><path
           id="path862"
           d="M 87.925,325.019 H 68.346 C 30.599,325.019 0,294.42 0,256.674 v 0 c 0,-8.592 6.965,-15.556 15.556,-15.556 h 72.369 c 23.169,0 41.951,18.782 41.951,41.951 v 0 c 0,23.168 -18.783,41.95 -41.951,41.95 z"
           style="fill:#4a5058"
           inkscape:connector-curvature="0" /><g
           id="g868"><path
             id="path864"
             d="m 158.816,405.418 c -7.539,0 -13.65,-6.112 -13.65,-13.65 v -21.317 c 0,-7.538 6.111,-13.65 13.65,-13.65 7.539,0 13.65,6.112 13.65,13.65 v 21.317 c -0.001,7.538 -6.113,13.65 -13.65,13.65 z"
             style="fill:#f4b759"
             inkscape:connector-curvature="0" /><path
             id="path866"
             d="m 211.23,405.418 c -7.539,0 -13.65,-6.112 -13.65,-13.65 v -21.317 c 0,-7.538 6.111,-13.65 13.65,-13.65 7.539,0 13.65,6.112 13.65,13.65 v 21.317 c 0,7.538 -6.112,13.65 -13.65,13.65 z"
             style="fill:#f4b759"
             inkscape:connector-curvature="0" /></g><g
           id="g870" /><g
           id="g872" /><g
           id="g874" /><g
           id="g876" /><g
           id="g878" /><g
           id="g880" /><g
           id="g882" /><g
           id="g884" /><g
           id="g886" /><g
           id="g888" /><g
           id="g890" /><g
           id="g892" /><g
           id="g894" /><g
           id="g896" /><g
           id="g898" /></g></g></g><g
     id="g10" /><g
     id="g12" /><g
     id="g14" /><g
     id="g16" /><g
     id="g18" /><g
     id="g20" /><g
     id="g22" /><g
     id="g24" /><g
     id="g26" /><g
     id="g28" /><g
     id="g30" /><g
     id="g32" /><g
     id="g34" /><g
     id="g36" /><g
     id="g38" /></svg>