<?xml version="1.0" encoding="UTF-8" standalone="no"?>
<!-- Generator: Adobe Illustrator 19.0.0, SVG Export Plug-In . SVG Version: 6.00 Build 0)  -->

<svg
   xmlns:dc="http://purl.org/dc/elements/1.1/"
   xmlns:cc="http://creativecommons.org/ns#"
   xmlns:rdf="http://www.w3.org/1999/02/22-rdf-syntax-ns#"
   xmlns:svg="http://www.w3.org/2000/svg"
   xmlns="http://www.w3.org/2000/svg"
   xmlns:sodipodi="http://sodipodi.sourceforge.net/DTD/sodipodi-0.dtd"
   xmlns:inkscape="http://www.inkscape.org/namespaces/inkscape"
   version="1.1"
   id="Layer_1"
   x="0px"
   y="0px"
   viewBox="0 0 512 512"
   style="enable-background:new 0 0 512 512;"
   xml:space="preserve"
   sodipodi:docname="unicorn.svg"
   inkscape:version="0.92.2 (5c3e80d, 2017-08-06)"><metadata
     id="metadata45"><rdf:RDF><cc:Work
         rdf:about=""><dc:format>image/svg+xml</dc:format><dc:type
           rdf:resource="http://purl.org/dc/dcmitype/StillImage" /><dc:title></dc:title></cc:Work></rdf:RDF></metadata><defs
     id="defs43" /><sodipodi:namedview
     pagecolor="#ffffff"
     bordercolor="#666666"
     borderopacity="1"
     objecttolerance="10"
     gridtolerance="10"
     guidetolerance="10"
     inkscape:pageopacity="0"
     inkscape:pageshadow="2"
     inkscape:window-width="1280"
     inkscape:window-height="945"
     id="namedview41"
     showgrid="false"
     inkscape:zoom="0.4609375"
     inkscape:cx="393.76271"
     inkscape:cy="256.74162"
     inkscape:window-x="-9"
     inkscape:window-y="-9"
     inkscape:window-maximized="1"
     inkscape:current-layer="g8" /><g
     id="g858"
     transform="translate(1.5340642)"><g
       transform="matrix(1.5673305,0,0,1,-145.23661,0)"
       id="g8"><rect
         style="opacity:1;fill:#5fbcd3;fill-opacity:1;stroke:none;stroke-width:0.34060571;stroke-linecap:butt;stroke-miterlimit:4;stroke-dasharray:none;stroke-dashoffset:0;stroke-opacity:1;paint-order:normal"
         id="rect841"
         width="326.3295"
         height="511.65939"
         x="92.858147"
         y="1.4060147"
         ry="29.706141" /><rect
         ry="27.39151"
         y="21.339638"
         x="108.95308"
         height="471.79214"
         width="294.83176"
         id="rect843"
         style="opacity:1;fill:#afdde9;fill-opacity:1;stroke:none;stroke-width:0.31088212;stroke-linecap:butt;stroke-miterlimit:4;stroke-dasharray:none;stroke-dashoffset:0;stroke-opacity:1;paint-order:normal" /><g
         id="g985"
         transform="matrix(0.46850263,0,0,0.73429845,135.08464,68.019593)"><path
           id="path834"
           d="m 205.815,427.425 v 60.793 L 162.43,501.09 157.19,373.082 c 8.87,2.919 39.529,53.04 48.625,54.343 z"
           style="fill:#d3d1cd"
           inkscape:connector-curvature="0" /><rect
           id="rect836"
           height="23.783001"
           width="45.631001"
           style="fill:#726d65"
           y="488.21701"
           x="160.19" /><path
           id="path838"
           d="m 358.392,387.618 v 99.51 l -45.44,17.761 -6.971,-123.396 c 10.768,-5.727 44.584,12.66 52.186,5.867 z"
           style="fill:#d3d1cd"
           inkscape:connector-curvature="0" /><rect
           id="rect840"
           height="24.872"
           width="45.439999"
           style="fill:#726d65"
           y="487.12799"
           x="312.94699" /><path
           id="path842"
           d="m 83.409,403.721 c -16.214,32.9 -61.646,34.248 -61.646,34.248 0,0 29.431,-24.827 7.501,-83.25 C 7.323,296.295 18.866,191.137 88.148,191.137 c 44.893,0 58.749,33.08 62.937,56.357 C 148.435,247.37 66.566,384.8 84.97,402.261 Z"
           style="fill:#fcacdf"
           inkscape:connector-curvature="0" /><path
           id="path844"
           d="m 57.145,331.924 c -1.583,27.713 9.421,52.876 27.825,70.337 l -1.561,1.46 c -16.214,32.9 -61.646,34.248 -61.646,34.248 0,0 29.431,-24.827 7.501,-83.25 -1.718,-4.57 -3.223,-9.421 -4.525,-14.496 10.712,-10.724 17.27,-25.31 21.155,-37.212 3.874,-11.914 5.075,-21.144 5.075,-21.144 0.573,-70.438 60.613,-27.275 60.613,-27.275 l -0.55,0.786 c -29.621,13.72 -52.012,43.589 -53.887,76.546 z"
           style="fill:#db91c5"
           inkscape:connector-curvature="0" /><g
           id="g850"><rect
             id="rect846"
             height="24.872"
             width="37.066002"
             style="fill:#847e74"
             y="487.12799"
             x="293.64401" /><rect
             id="rect848"
             height="23.783001"
             width="30.014999"
             style="fill:#847e74"
             y="488.21701"
             x="148.67999" /></g><path
           id="path852"
           d="m 402.977,262.871 c -6.805,0.247 -13.845,-0.393 -20.987,-2.032 l -0.236,1.044 c 3.773,8.59 6.906,18.404 8.77,28.903 5.48,30.89 -0.011,67.71 -32.361,96.579 -7.602,6.793 -16.686,13.138 -27.454,18.864 v 80.904 h -37.066 v -63.757 c 0,0 -43.13,10.454 -87.832,4.054 -9.095,-1.303 -18.247,-3.301 -27.118,-6.221 v 67.014 H 148.678 V 431.46 c 0,0 -10.252,-1.987 -23.715,-7.209 C 109.714,420.444 96.004,412.753 84.966,402.265 66.562,384.804 55.558,359.64 57.141,331.928 c 2.504,-44.107 41.76,-82.667 85.9,-84.452 2.706,-0.112 5.39,-0.101 8.04,0.022 14.8,0.707 28.667,5.008 40.738,12.049 4.593,2.672 8.927,5.738 12.947,9.151 8.972,7.602 28.779,-91.245 28.779,-156.125 0,-64.88 67.272,-51.001 67.272,-51.001 0,-8.523 1.056,-15.642 2.796,-21.593 8.444,-28.824 33.091,-30.307 33.091,-30.307 v 49.014 h 0.056 C 338.22,8.796 372.602,6.584 372.602,6.584 v 52.337 c -15.855,7.77 32.732,34.237 32.732,34.237 l 0.011,0.011 c 4.806,7.142 9.859,14.463 15.114,21.851 4.39,6.176 8.916,12.408 13.553,18.606 0,0 0,0.011 0.011,0.022 0.281,0.371 0.561,0.752 0.842,1.123 5.255,6.996 10.645,13.935 16.136,20.751 41.997,52.036 4.145,105.53 -48.024,107.349 z"
           style="fill:#edeae4"
           inkscape:connector-curvature="0" /><path
           id="path854"
           d="m 303.613,39.979 c -0.865,2.931 -1.55,6.142 -2.032,9.668 -0.494,3.627 -0.764,7.602 -0.764,11.925 0,0 -55.672,7.13 -55.672,72.01 0,64.88 39.896,109.301 -5.772,137.328 -0.326,0.202 -0.651,0.427 -0.999,0.629 -0.46,0.281 -0.932,0.55 -1.415,0.809 -2.841,1.527 -5.873,2.515 -8.961,2.976 -8.163,1.246 -16.72,-1.112 -23.232,-6.625 -4.02,-3.414 -8.354,-6.479 -12.947,-9.151 38.953,-23.783 3.885,-59.524 14.07,-145.424 10.398,-87.586 97.724,-74.145 97.724,-74.145 z"
           style="fill:#fcacdf"
           inkscape:connector-curvature="0" /><g
           id="g860"><path
             id="path856"
             d="m 190.474,424.516 c 81.249,0 103.171,-42.232 103.171,-42.232 v 41.086 c 0.001,10e-4 -59.672,20.336 -103.171,1.146 z"
             style="fill:#d3d1cd"
             inkscape:connector-curvature="0" /><path
             id="path858"
             d="m 96.446,342.445 c 0,61.758 52.236,89.011 52.236,89.011 0,0 -10.252,-1.987 -23.715,-7.209 C 109.718,420.44 96.008,412.749 84.97,402.261 66.566,384.8 55.562,359.636 57.145,331.924 c 2.504,-44.107 41.76,-82.666 85.9,-84.452 2.706,-0.112 5.39,-0.101 8.04,0.022 0,0 -54.639,29.824 -54.639,94.951 z"
             style="fill:#d3d1cd"
             inkscape:connector-curvature="0" /></g><g
           id="g870"><path
             id="path862"
             d="m 412.903,207.277 c -3.672,0 -6.736,-3.07 -6.737,-6.737 -10e-4,-3.661 3.078,-6.737 6.737,-6.737 3.668,0 6.734,3.07 6.737,6.737 0.004,3.673 -3.058,6.737 -6.737,6.737 z"
             style="fill:#666666"
             inkscape:connector-curvature="0" /><path
             id="path864"
             d="m 460.244,199.204 c -3.663,0 -6.737,-3.077 -6.737,-6.737 0,-3.604 2.953,-6.636 6.56,-6.733 3.616,-0.097 6.723,2.794 6.906,6.398 0.192,3.783 -2.94,7.072 -6.729,7.072 z"
             style="fill:#666666"
             inkscape:connector-curvature="0" /><path
             id="path866"
             d="m 336.796,146.17 c -1.982,-2.301 -2.895,-5.331 -2.958,-8.47 -0.033,-3.136 0.84,-6.398 2.533,-9.273 1.683,-2.884 4.17,-5.389 7.153,-7.185 2.977,-1.806 6.45,-2.884 9.942,-3.117 3.491,-0.237 7.079,0.375 10.27,1.773 3.195,1.39 5.995,3.544 8.042,6.186 2.058,2.63 3.352,5.754 3.728,8.871 0.345,3.124 -0.167,6.252 -1.844,8.793 -3.908,-4.55 -7.43,-6.572 -10.626,-7.693 -3.201,-1.084 -5.819,-1.258 -8.465,-1.126 -2.644,0.197 -5.225,0.714 -8.263,2.208 -3.03,1.532 -6.254,4.011 -9.512,9.033 z"
             style="fill:#666666"
             inkscape:connector-curvature="0" /><path
             id="path868"
             d="m 434.867,134.773 c -1.392,-0.853 -2.729,-1.449 -4.009,-1.898 -3.2,-1.089 -5.828,-1.258 -8.467,-1.134 -2.65,0.202 -5.233,0.719 -8.264,2.212 -3.032,1.527 -6.254,4.009 -9.511,9.028 -1.987,-2.291 -2.897,-5.322 -2.964,-8.467 -0.022,-3.133 0.842,-6.4 2.538,-9.275 1.684,-2.886 4.166,-5.39 7.153,-7.186 2.74,-1.651 5.918,-2.706 9.118,-3.032 4.39,6.176 8.916,12.408 13.553,18.606 0,0 0,0.011 0.011,0.022 0.28,0.371 0.561,0.753 0.842,1.124 z"
             style="fill:#666666"
             inkscape:connector-curvature="0" /></g><path
           id="path872"
           d="m 333.706,182.808 h -17.217 c -4.651,0 -8.422,-3.771 -8.422,-8.422 0,-4.651 3.771,-8.422 8.422,-8.422 h 17.217 c 4.651,0 8.422,3.771 8.422,8.422 0,4.651 -3.771,8.422 -8.422,8.422 z"
           style="fill:#e58376"
           inkscape:connector-curvature="0" /><g
           id="g878"><path
             id="path874"
             d="m 287.477,194.611 c 0.269,0.505 2.246,4.166 5.85,9.859 -2.324,-3.2 -4.3,-6.49 -5.85,-9.859 z"
             style="fill:#d3d1cd"
             inkscape:connector-curvature="0" /><path
             id="path876"
             d="m 390.524,290.786 c -50.968,-20.515 -84.351,-66.093 -97.174,-86.282 24.726,33.99 88.404,57.379 88.404,57.379 3.773,8.59 6.906,18.404 8.77,28.903 z"
             style="fill:#d3d1cd"
             inkscape:connector-curvature="0" /></g><g
           id="g884"><path
             id="path880"
             d="m 336.704,58.686 h -20.066 c 0,0 8.13,-43.557 20.066,-49.014 z"
             style="fill:#b5b4b4"
             inkscape:connector-curvature="0" /><path
             id="path882"
             d="m 372.603,55.598 h -20.066 c 0,0 8.13,-43.557 20.066,-49.014 z"
             style="fill:#b5b4b4"
             inkscape:connector-curvature="0" /></g><path
           id="path886"
           d="m 301.581,49.647 c -0.494,3.627 -0.764,7.602 -0.764,11.925 0,0 -55.672,7.13 -55.672,72.01 0,64.88 39.896,109.301 -5.772,137.328 -0.326,0.202 -0.651,0.427 -0.999,0.629 -0.46,0.281 -0.932,0.55 -1.415,0.809 -2.841,1.527 -5.873,2.515 -8.961,2.976 41.805,-52.91 -0.438,-63.353 -0.438,-145.537 0,-70.506 53.786,-79.32 74.021,-80.14 z"
           style="fill:#db91c5"
           inkscape:connector-curvature="0" /><path
           id="path888"
           d="m 492.785,0.004 -31.935,34.013 -8.455,9.017 -25.759,27.443 -7.389,7.871 -13.913,14.811 -4.222,4.503 c -1.493,1.583 -3.144,2.942 -4.929,4.054 -2.594,1.628 -5.446,2.74 -8.377,3.324 -5.962,1.179 -12.273,0.157 -17.596,-3.234 -0.808,-0.517 -1.583,-1.078 -2.336,-1.696 -0.18,-0.146 -0.348,-0.292 -0.528,-0.449 -13.43,-11.431 -10.6,-32.968 5.255,-40.738 l 11.027,-5.401 9.904,-4.862 27.252,-13.362 11.925,-5.839 20.605,-10.106 10.555,-5.176 z"
           style="fill:#f9d780"
           inkscape:connector-curvature="0" /><path
           id="path890"
           d="m 492.789,0 -87.45,93.154 -4.222,4.503 c -8.096,8.624 -21.166,10.342 -30.902,4.143 z"
           style="fill:#f9e9c7"
           inkscape:connector-curvature="0" /><g
           id="g898"><path
             id="path892"
             d="m 426.636,70.477 -7.389,7.871 c -4.761,-16.708 -1.875,-32.496 1.538,-43.051 l 11.925,-5.839 c -2.941,6.4 -9.252,22.906 -6.074,41.019 z"
             style="fill:#e0be70"
             inkscape:connector-curvature="0" /><path
             id="path894"
             d="m 463.871,14.175 c -1.606,5.502 -2.976,12.352 -3.021,19.841 l -8.455,9.017 c -1.112,-8.601 -0.449,-16.72 0.921,-23.682 z"
             style="fill:#e0be70"
             inkscape:connector-curvature="0" /><path
             id="path896"
             d="m 396.183,101.715 c -2.594,1.628 -5.446,2.74 -8.377,3.324 -6.311,-20.055 -5.839,-38.807 -4.177,-51.518 l 9.904,-4.862 c -2.032,11.116 -3.986,31.418 2.65,53.056 z"
             style="fill:#e0be70"
             inkscape:connector-curvature="0" /></g><g
           id="g900" /><g
           id="g902" /><g
           id="g904" /><g
           id="g906" /><g
           id="g908" /><g
           id="g910" /><g
           id="g912" /><g
           id="g914" /><g
           id="g916" /><g
           id="g918" /><g
           id="g920" /><g
           id="g922" /><g
           id="g924" /><g
           id="g926" /><g
           id="g928" /></g></g></g><g
     id="g10" /><g
     id="g12" /><g
     id="g14" /><g
     id="g16" /><g
     id="g18" /><g
     id="g20" /><g
     id="g22" /><g
     id="g24" /><g
     id="g26" /><g
     id="g28" /><g
     id="g30" /><g
     id="g32" /><g
     id="g34" /><g
     id="g36" /><g
     id="g38" /></svg>