<?xml version="1.0" encoding="UTF-8" standalone="no"?>
<!-- Generator: Adobe Illustrator 19.0.0, SVG Export Plug-In . SVG Version: 6.00 Build 0)  -->

<svg
   xmlns:dc="http://purl.org/dc/elements/1.1/"
   xmlns:cc="http://creativecommons.org/ns#"
   xmlns:rdf="http://www.w3.org/1999/02/22-rdf-syntax-ns#"
   xmlns:svg="http://www.w3.org/2000/svg"
   xmlns="http://www.w3.org/2000/svg"
   xmlns:sodipodi="http://sodipodi.sourceforge.net/DTD/sodipodi-0.dtd"
   xmlns:inkscape="http://www.inkscape.org/namespaces/inkscape"
   version="1.1"
   id="Layer_1"
   x="0px"
   y="0px"
   viewBox="0 0 512 512"
   style="enable-background:new 0 0 512 512;"
   xml:space="preserve"
   sodipodi:docname="whale.svg"
   inkscape:version="0.92.2 (5c3e80d, 2017-08-06)"><metadata
     id="metadata45"><rdf:RDF><cc:Work
         rdf:about=""><dc:format>image/svg+xml</dc:format><dc:type
           rdf:resource="http://purl.org/dc/dcmitype/StillImage" /><dc:title></dc:title></cc:Work></rdf:RDF></metadata><defs
     id="defs43" /><sodipodi:namedview
     pagecolor="#ffffff"
     bordercolor="#666666"
     borderopacity="1"
     objecttolerance="10"
     gridtolerance="10"
     guidetolerance="10"
     inkscape:pageopacity="0"
     inkscape:pageshadow="2"
     inkscape:window-width="1280"
     inkscape:window-height="945"
     id="namedview41"
     showgrid="false"
     inkscape:zoom="0.32593203"
     inkscape:cx="-111.07196"
     inkscape:cy="837.2848"
     inkscape:window-x="-9"
     inkscape:window-y="-9"
     inkscape:window-maximized="1"
     inkscape:current-layer="g931" /><g
     id="g858"
     transform="translate(1.5340642)"><g
       transform="matrix(1.5673305,0,0,1,-145.23661,0)"
       id="g8"><rect
         style="opacity:1;fill:#5fbcd3;fill-opacity:1;stroke:none;stroke-width:0.34060571;stroke-linecap:butt;stroke-miterlimit:4;stroke-dasharray:none;stroke-dashoffset:0;stroke-opacity:1;paint-order:normal"
         id="rect841"
         width="326.3295"
         height="511.65939"
         x="92.858147"
         y="1.4060147"
         ry="29.706141" /><rect
         ry="27.39151"
         y="21.339638"
         x="108.95308"
         height="471.79214"
         width="294.83176"
         id="rect843"
         style="opacity:1;fill:#ffe680;fill-opacity:1;stroke:none;stroke-width:0.31088212;stroke-linecap:butt;stroke-miterlimit:4;stroke-dasharray:none;stroke-dashoffset:0;stroke-opacity:1;paint-order:normal" /><g
         id="g931"
         transform="matrix(0.48663117,0,0,0.76271187,127.89153,58.745763)"><path
           id="path834"
           d="m 511.997,282.863 v 107.955 c 0,0.542 -0.011,1.094 -0.021,1.636 -0.86,44.646 -37.327,80.56 -82.185,80.56 H 126.247 c -43.201,0 -78.223,-35.022 -78.223,-78.234 v -29.466 c 0,-10.07 -6.097,-19.258 -15.509,-22.859 C 13.501,335.189 0,316.771 0,295.207 h 22.679 c 27.735,0 50.244,22.318 50.562,49.978 h 0.021 c 0.319,-27.661 22.827,-49.978 50.562,-49.978 h 22.679 c 0,20.501 -12.205,38.145 -29.732,46.08 -8.668,3.92 -14.064,12.726 -14.064,22.222 v 4.281 c 0,10.495 4.249,19.991 11.122,26.875 6.883,6.873 16.38,11.122 26.875,11.122 20.979,0 37.985,-17.006 37.985,-37.996 v -84.926 c 0,-37.21 12.194,-71.573 32.802,-99.298 30.369,-40.875 79.02,-67.356 133.852,-67.356 92.042,-0.002 166.654,74.61 166.654,166.652 z"
           style="fill:#71b4e0"
           inkscape:connector-curvature="0" /><path
           id="path836"
           d="m 511.976,392.455 c -0.86,44.646 -37.327,80.56 -82.185,80.56 H 126.247 c -43.201,0 -78.223,-35.022 -78.223,-78.234 v -29.466 c 0,-10.07 -6.097,-19.258 -15.509,-22.859 C 13.501,335.189 0,316.771 0,295.207 h 22.679 c 27.735,0 50.244,22.318 50.562,49.978 h 0.021 c 0.319,-27.661 22.827,-49.978 50.562,-49.978 h 22.679 c 0,20.501 -12.205,38.145 -29.732,46.08 -8.668,3.92 -14.064,12.726 -14.064,22.222 v 4.281 c 0,10.495 4.249,19.991 11.122,26.875 6.883,6.873 16.38,11.122 26.875,11.122 20.979,0 37.985,-17.006 37.985,-37.996 v -84.926 c 0,-37.21 12.194,-71.573 32.802,-99.298 0,0 -17.559,157.582 85.998,207.253 62.789,30.113 153.1,16.792 214.487,1.635 z"
           style="fill:#4c98c6"
           inkscape:connector-curvature="0" /><path
           id="path838"
           d="m 512,329.676 v 61.132 c 0,0.552 -0.011,1.094 -0.021,1.646 -0.839,43.265 -35.139,78.35 -78.095,80.454 -1.349,0.074 -2.719,0.106 -4.09,0.106 H 242.437 V 409.8 c 0,-18.037 5.81,-34.724 15.657,-48.268 14.638,-20.151 38.209,-33.397 64.902,-33.907 0.542,-0.021 1.094,-0.032 1.636,-0.032 h 168.906 c 6.353,10e-4 12.524,0.723 18.462,2.083 z"
           style="fill:#e6ebed"
           inkscape:connector-curvature="0" /><path
           id="path840"
           d="m 511.976,392.455 c -0.871,44.635 -37.338,80.56 -82.185,80.56 H 242.434 v -63.214 c 0,-18.037 5.81,-34.724 15.657,-48.268 10.654,11.642 23.613,21.712 39.398,29.286 62.789,30.114 153.1,16.793 214.487,1.636 z"
           style="fill:#dbdddd"
           inkscape:connector-curvature="0" /><g
           id="g848"><path
             id="path842"
             d="m 471.306,327.594 v 67.611 c 0,31.941 -14.765,60.282 -37.423,77.702 -1.349,0.074 -2.719,0.106 -4.09,0.106 H 398.17 c 32.749,-8.307 57.201,-40.046 57.201,-77.809 v -67.611 h 15.935 z"
             style="fill:#bfbfbf"
             inkscape:connector-curvature="0" /><path
             id="path844"
             d="m 405.118,327.594 v 67.611 c 0,31.994 -14.818,60.377 -37.55,77.809 h -35.585 c 32.749,-8.307 57.201,-40.046 57.201,-77.809 v -67.611 z"
             style="fill:#bfbfbf"
             inkscape:connector-curvature="0" /><path
             id="path846"
             d="m 338.93,327.594 v 67.611 c 0,31.994 -14.818,60.377 -37.539,77.809 h -35.595 c 32.759,-8.307 57.201,-40.046 57.201,-77.809 v -67.579 c 0.542,-0.021 1.094,-0.032 1.636,-0.032 z"
             style="fill:#bfbfbf"
             inkscape:connector-curvature="0" /></g><g
           id="g854"><path
             id="path850"
             d="m 408.003,289.885 c -4.401,0 -7.967,-3.567 -7.967,-7.967 v -17.256 c 0,-4.4 3.566,-7.967 7.967,-7.967 4.401,0 7.967,3.567 7.967,7.967 v 17.256 c 0,4.4 -3.567,7.967 -7.967,7.967 z"
             style="fill:#4d4d4d"
             inkscape:connector-curvature="0" /><path
             id="path852"
             d="m 438.703,289.885 c -4.401,0 -7.967,-3.567 -7.967,-7.967 v -17.256 c 0,-4.4 3.566,-7.967 7.967,-7.967 4.401,0 7.967,3.567 7.967,7.967 v 17.256 c -0.001,4.4 -3.566,7.967 -7.967,7.967 z"
             style="fill:#4d4d4d"
             inkscape:connector-curvature="0" /></g><g
           id="g862"
           style="fill:#71b4e0;fill-opacity:1"><path
             id="path856"
             d="m 340.775,105.715 c -4.401,0 -7.967,-3.567 -7.967,-7.967 V 46.952 c 0,-4.4 3.566,-7.967 7.967,-7.967 4.401,0 7.967,3.567 7.967,7.967 v 50.796 c 0,4.4 -3.567,7.967 -7.967,7.967 z"
             style="fill:#71b4e0;fill-opacity:1"
             inkscape:connector-curvature="0" /><path
             id="path858"
             d="m 314.495,105.717 c -2.711,0 -5.353,-1.383 -6.844,-3.879 L 286.939,67.205 c -2.258,-3.776 -1.028,-8.668 2.748,-10.926 3.779,-2.257 8.67,-1.027 10.926,2.748 l 20.712,34.633 c 2.258,3.776 1.028,8.668 -2.748,10.926 -1.282,0.765 -2.692,1.131 -4.082,1.131 z"
             style="fill:#71b4e0;fill-opacity:1"
             inkscape:connector-curvature="0" /><path
             id="path860"
             d="m 367.056,105.717 c -1.393,0 -2.801,-0.364 -4.082,-1.13 -3.776,-2.258 -5.006,-7.15 -2.748,-10.926 l 20.712,-34.633 c 2.258,-3.776 7.152,-5.004 10.926,-2.748 3.776,2.258 5.006,7.15 2.748,10.926 L 373.9,101.838 c -1.491,2.495 -4.134,3.879 -6.844,3.879 z"
             style="fill:#71b4e0;fill-opacity:1"
             inkscape:connector-curvature="0" /></g><g
           id="g864" /><g
           id="g866" /><g
           id="g868" /><g
           id="g870" /><g
           id="g872" /><g
           id="g874" /><g
           id="g876" /><g
           id="g878" /><g
           id="g880" /><g
           id="g882" /><g
           id="g884" /><g
           id="g886" /><g
           id="g888" /><g
           id="g890" /><g
           id="g892" /></g></g></g><g
     id="g10" /><g
     id="g12" /><g
     id="g14" /><g
     id="g16" /><g
     id="g18" /><g
     id="g20" /><g
     id="g22" /><g
     id="g24" /><g
     id="g26" /><g
     id="g28" /><g
     id="g30" /><g
     id="g32" /><g
     id="g34" /><g
     id="g36" /><g
     id="g38" /></svg>